<?xml version="1.0" encoding="utf-8"?>
<!-- Generator: Adobe Illustrator 22.0.0, SVG Export Plug-In . SVG Version: 6.00 Build 0)  -->
<svg version="1.1" id="Layer_1" xmlns="http://www.w3.org/2000/svg" xmlns:xlink="http://www.w3.org/1999/xlink" x="0px" y="0px"
	 viewBox="0 0 544 144.9" style="enable-background:new 0 0 544 144.9;" xml:space="preserve">
<style type="text/css">
	.st0{fill:#BABCBF;}
	.st1{fill:#65A3AD;}
</style>
<g>
	<path class="st0" d="M78.9,108.5c0-9,0-18.1,0-27.1c0-1,0.2-1.3,1.3-1.3c17.8,0,35.6,0,53.3,0c1,0,1.3,0.2,1.2,1.2
		c0,18.2,0,36.3,0,54.5c0,1.1-0.3,1.3-1.3,1.3c-17.7,0-35.5,0-53.2,0c-1,0-1.3-0.3-1.3-1.3C78.9,126.6,78.9,117.5,78.9,108.5z"/>
	<path class="st1" d="M11.6,108.4c0-9.1,0-18.2,0-27.2c0-0.9,0.2-1.2,1.2-1.2c17.8,0,35.6,0,53.3,0c0.9,0,1.2,0.2,1.2,1.2
		c0,18.2,0,36.4,0,54.6c0,1-0.3,1.2-1.3,1.2c-17.7,0-35.5,0-53.2,0c-1,0-1.2-0.3-1.2-1.2C11.6,126.6,11.6,117.5,11.6,108.4z"/>
	<path class="st1" d="M11.6,39.1c0-9.1,0-18.2,0-27.2c0-1,0.3-1.2,1.2-1.2c17.7,0,35.4,0,53.1,0c1.1,0,1.3,0.3,1.3,1.4
		c0,18,0,36.1,0,54.1c0,1.2-0.4,1.4-1.4,1.4c-17.6,0-35.3,0-52.9,0c-1.2,0-1.4-0.4-1.4-1.4C11.6,57.1,11.6,48.1,11.6,39.1z"/>
	<path class="st1" d="M123.1,24c-1.1,4.5-2.3,9.1-3.4,13.6c-2.5,9.9-5,19.8-7.5,29.7c-0.2,0.8-0.5,1.1-1.4,1.1c-3-0.1-6.1-0.1-9.1,0
		c-0.8,0-1.1-0.2-1.3-1.1c-3.5-14.1-7-28.2-10.5-42.3c-0.1-0.4-0.2-0.7-0.4-1c0,0.4,0,0.9,0,1.3c0,13.9,0,27.9,0,41.8
		c0,1-0.2,1.4-1.3,1.3c-2.6-0.1-5.3,0-8,0c-1.6,0-1.6,0-1.6-1.5c0-16.7,0-33.3,0-50c0-1.7,0-3.4,0-5c0-0.7,0.2-1,0.9-1
		c5.2,0,10.5,0,15.7,0c0.7,0,0.9,0.4,1.1,0.9c2.7,10.3,5.4,20.6,8.1,30.9c0.6,2.3,1.2,4.6,1.9,7.2c0.7-2.5,1.3-4.7,1.8-6.9
		c2.7-10.4,5.4-20.8,8.1-31.2c0.2-0.8,0.5-1.1,1.4-1.1c5.1,0,10.2,0,15.2,0c0.9,0,1.1,0.2,1.1,1.1c0,18.5,0,36.9,0,55.4
		c0,0.8-0.2,1.1-1.1,1.1c-2.8-0.1-5.6-0.1-8.4,0c-1.1,0-1.4-0.2-1.4-1.3c0-13.9,0-27.9,0-41.8c0-0.4,0-0.9,0-1.3
		C123.2,24,123.1,24,123.1,24z"/>
	<path class="st1" d="M505.8,41.4c2-2.3,3.8-4.3,5.6-6.4c2.3-2.6,4.5-5.2,6.8-7.7c0.3-0.4,0.7-0.5,1.2-0.5c4.2,0,8.4,0,12.8,0
		c-0.4,0.8-1.1,1.4-1.6,2c-3.9,4.2-7.7,8.3-11.7,12.4c-0.7,0.7-0.7,1.2-0.2,2c4.7,8,9.3,16,13.9,24c0.1,0.3,0.3,0.5,0.4,0.8
		c0.3,0.4,0.2,0.6-0.3,0.6c-3.6,0-7.2,0-10.8,0c-0.7,0-0.8-0.6-1.1-1c-3.1-5.5-6.2-11.1-9.3-16.6c-0.6-1.1-0.6-1.1-1.5-0.2
		c-1.2,1.2-2.3,2.5-3.6,3.7c-0.5,0.5-0.6,1-0.6,1.6c0,3.8,0,7.5,0,11.3c0,0.9-0.3,1.2-1.1,1.1c-3,0-6,0-9,0c-0.8,0-1.1-0.2-1.1-1.1
		c0-18.5,0-37.1,0-55.6c0-0.9,0.3-1.1,1.1-1.1c3,0,6,0,9,0c0.9,0,1.1,0.3,1.1,1.2c0,9.3,0,18.6,0,27.9
		C505.8,40.3,505.8,40.7,505.8,41.4z"/>
	<path class="st1" d="M242.3,32.1c2.4-2.7,4.9-4.6,8.1-5.6c4.5-1.3,8.8-0.9,12.9,1.4c3.8,2.1,5.3,5.6,5.7,9.7
		c0.5,5.7,0.2,11.3,0.2,17c0.1,4.2,0,8.4,0,12.7c0,0.8-0.2,1.1-1.1,1.1c-3,0-6-0.1-9,0c-0.9,0-1-0.3-1-1.1c0-8,0-16.1,0-24.1
		c0-1-0.1-1.9-0.2-2.9c-0.3-4.9-4.1-6.4-7.6-6c-4.9,0.6-7.5,3.7-7.9,8.9c-0.5,7.5-0.1,14.9-0.2,22.4c0,2.7,0,2.7-2.7,2.7
		c-2.5,0-4.9,0-7.4,0c-0.8,0-1-0.2-1-1c0-18.5,0-37,0-55.5c0-0.8,0.2-1.1,1.1-1.1c3,0,6,0.1,9,0c0.9,0,1,0.3,1,1.1
		c0,6.2,0,12.4,0,18.6C242.3,31,242.3,31.4,242.3,32.1z"/>
	<path class="st1" d="M313.1,48.6c0,3.8,0,6.9,0,10s0.6,6.1,2,8.9c0.5,1,0.2,1.1-0.7,1.1c-2.9,0-5.9,0-8.9,0c-0.7,0-1.1-0.2-1.3-0.9
		c-0.2-0.9-0.5-1.7-0.8-2.6c-0.2-0.8-0.4-1.1-1.1-0.4c-2.5,2.3-5.4,3.9-8.8,4.4c-4.9,0.8-9.5,0.3-13.4-3c-5.8-5-5.3-16.2,2.9-19.7
		c3.5-1.5,7.2-2.2,10.9-2.9c2.5-0.5,5-1.1,7.4-1.8c0.7-0.2,1.1-0.6,1-1.4c-0.1-0.4,0-0.8-0.1-1.2c-0.2-2.4-1.4-3.9-3.8-4.3
		c-1.9-0.4-3.8-0.5-5.7-0.2c-2.4,0.4-3.9,1.9-4.8,4c-0.3,0.8-0.7,1-1.5,0.9c-2.7-0.5-5.4-1-8.1-1.5c-0.8-0.1-0.8-0.4-0.6-1.1
		c1.9-6,5.8-9.6,12.1-10.6c4.8-0.8,9.5-0.7,14.2,0.4c1.8,0.4,3.4,1.2,5,2.3c2.7,1.9,3.7,4.6,4,7.8C313.3,40.9,313,45.1,313.1,48.6z
		 M302.2,51.6c0-0.2,0-0.4,0-0.7c0.1-2.4,0.1-2.4-2.2-1.8c-3,0.8-6.1,1.2-9,2.3c-1.9,0.7-3.3,1.9-3.6,3.9c-0.4,2.3,0.7,4,2.5,5.3
		c3.4,2.5,9.4,0.1,11.2-3.2C302.1,55.6,302.1,53.6,302.2,51.6z"/>
	<path class="st1" d="M375.6,47.4c0.3-7.6,2.9-14.1,9.7-18.4c4.4-2.7,9.2-3.5,14.3-3.1c5.5,0.5,10.2,2.7,13.9,6.8
		c2.9,3.2,4.6,7.1,5.1,11.4c0.6,5,0.1,9.9-2.4,14.3c-3.6,6.3-9,10-16.3,10.8c-4.4,0.5-8.6-0.2-12.6-1.9c-6.6-2.9-10.1-8.1-11.3-15.1
		C375.8,50.7,375.7,49.1,375.6,47.4z M387,48.3c0,0.8,0.2,2.3,0.5,3.8c0.9,4.5,4.5,7.9,8.6,8.2c5.5,0.5,9-2.9,10.3-6.7
		c1.3-4,1.4-8,0-12c-1.3-3.8-4-6.3-8.1-6.7c-4.4-0.5-7.6,1.4-9.7,5.2C387.4,42.5,387.1,45,387,48.3z"/>
	<path class="st1" d="M166.4,50.9c-4.3,0-8.5,0-12.8,0c-0.8,0-1.1,0.2-1,1.1c0.2,4.8,3.2,8.4,7.8,9.2c3.6,0.6,6.5-1.2,7.7-4.8
		c0.3-1,0.8-1.1,1.7-0.9c2.9,0.5,5.9,1.1,8.8,1.5c0.9,0.1,0.9,0.4,0.6,1.1c-2.3,5.7-6.3,9.5-12.3,10.9c-4.5,1-9.1,0.9-13.5-0.6
		c-5.3-1.7-8.8-5.4-10.6-10.6c-2.4-6.9-2.4-13.9,0.4-20.7c2.8-6.5,7.8-10.3,15-11c4.3-0.5,8.5,0.2,12.3,2.3
		c4.9,2.8,7.6,7.2,8.8,12.7c0.6,2.9,0.9,5.8,0.9,8.8c0,0.9-0.2,1.1-1.1,1.1C174.8,50.8,170.6,50.9,166.4,50.9z M161,44
		c2.1,0,4.2,0,6.3,0c2,0,2,0,1.7-2c-0.7-5.6-5.5-8.9-10.5-7.3c-3.4,1.1-5.9,4.8-5.7,8.5c0,0.7,0.4,0.7,0.9,0.7
		C156.1,44,158.5,44,161,44z"/>
	<path class="st1" d="M436.4,32.6c1.4-1.4,2.5-2.7,3.9-3.7c5.5-4.1,14-4.2,19.3-0.1c2.5,1.9,3.7,4.6,4.2,7.7
		c0.3,1.8,0.3,3.6,0.3,5.4c0,8.4,0,16.9,0,25.3c0,1-0.3,1.3-1.3,1.3c-2.9-0.1-5.8-0.1-8.7,0c-0.8,0-1.1-0.2-1.1-1.1
		c0-7.9,0-15.8,0-23.7c0-1.2-0.2-2.3-0.3-3.5c-0.5-4.7-4.5-6.6-8.7-5.6c-3.6,0.9-6,3.7-6.5,7.6c-0.4,3.5-0.4,7.1-0.4,10.6
		c0,4.9,0,9.7,0,14.6c0,0.8-0.2,1.1-1.1,1.1c-3,0-6-0.1-9,0c-0.9,0-1.1-0.3-1-1.1c0-13.2,0-26.4,0-39.7c0-0.8,0.2-1,1-1
		c2.8,0,5.6,0,8.4,0c0.7,0,1,0.2,0.9,1C436.3,29.2,436.4,30.8,436.4,32.6z"/>
	<path class="st1" d="M196.8,47.2c0.1,2.6,0.2,5.2,1.2,7.8c2,5.3,7.5,6.5,11.6,4.8c2.4-1,3.4-3.2,4.1-5.6c0.4-1.6,0.4-1.6,2.1-1.3
		c2.8,0.5,5.6,1,8.4,1.4c0.7,0.1,0.8,0.3,0.6,0.9c-1.9,8.3-7.6,13.3-16.2,14.2c-3.1,0.3-6.1,0.2-9.1-0.6
		c-6.1-1.6-10.3-5.5-12.3-11.3c-2.4-6.9-2.4-13.9,0.5-20.6c2.5-5.9,7.1-9.3,13.4-10.4c4.4-0.9,8.8-0.6,13.1,0.9
		c5.4,1.9,8.4,6.1,10.1,11.4c0.1,0.4,0.1,0.7-0.4,0.8c-3.2,0.6-6.4,1.1-9.6,1.7c-0.6,0.1-0.8-0.1-0.9-0.7c-1.1-3.9-3.3-5.7-7.2-5.8
		c-3.7-0.1-6.8,1.7-8.1,5.3C197,42.3,196.8,44.7,196.8,47.2z"/>
	<path class="st1" d="M341.8,59.3c0.3,2.7,0.6,5.3,0.9,7.9c0,0.4-0.1,0.7-0.5,0.9c-4.2,1.5-8.5,2.1-12.8,0.7
		c-3.9-1.2-5.7-3.9-5.9-8.4c-0.4-7.8-0.1-15.5-0.2-23.3c0-1.1-0.3-1.5-1.4-1.4c-1,0.1-1.9,0-2.9,0c-0.6,0-0.8-0.2-0.8-0.8
		c0-2.5,0-4.9,0-7.4c0-0.6,0.3-0.8,0.8-0.8c1,0,1.9-0.1,2.9,0s1.4-0.2,1.4-1.3c-0.1-2,0-4,0-6c0-0.6,0.1-1,0.7-1.3
		c3.2-1.8,6.3-3.7,9.5-5.6c0.8-0.5,1-0.4,1,0.5c0,4.1,0,8.3,0,12.4c0,1.1,0.3,1.3,1.3,1.3c1.8-0.1,3.5,0,5.3,0
		c0.6,0,0.9,0.1,0.9,0.9c0,2.4,0,4.8,0,7.2c0,0.8-0.3,0.9-1,0.9c-1.9,0-3.7,0-5.6,0c-0.7,0-0.9,0.2-0.9,0.9c0,6.9,0,13.9,0.1,20.8
		c0,2.1,1.5,3.2,3.6,2.9C339.3,60,340.5,59.6,341.8,59.3z"/>
	<path class="st1" d="M358,32.6c0.6-0.9,1.1-1.4,1.5-2.1c3.3-5,7.8-5.6,13-3.7c2.4,0.9,2.4,0.9,1.6,3.3c-0.8,2.2-1.6,4.4-2.4,6.6
		c-0.2,0.7-0.5,0.8-1.1,0.4c-1.6-0.9-3.2-1.5-5.1-1.3c-2.5,0.2-4.1,1.6-5,3.9c-1,2.4-1.2,5-1.4,7.6c-0.4,6.6-0.2,13.3-0.2,19.9
		c0,1-0.2,1.3-1.3,1.3c-2.9-0.1-5.8-0.1-8.7,0c-0.8,0-1.1-0.3-1.1-1.1c0-13.2,0-26.4,0-39.7c0-0.8,0.2-1,1-1c2.8,0,5.5,0,8.3,0
		c0.7,0,1,0.2,1,1C358,29.2,358,30.7,358,32.6z"/>
	<path class="st1" d="M474,47.5c0-6.6,0-13.1,0-19.7c0-0.9,0.2-1.1,1.1-1.1c3,0.1,6,0,9,0c0.8,0,1,0.2,1,1c0,13.2,0,26.5,0,39.7
		c0,0.8-0.2,1-1,1c-3,0-6-0.1-9,0c-0.9,0-1.1-0.3-1.1-1.1C474.1,60.7,474,54.1,474,47.5z"/>
	<path class="st0" d="M306.6,124.6c-1.5,1.6-3.2,2.6-5.2,3c-4.8,0.8-8.8-1.2-10.9-5.6c-2.5-5.3-2.3-10.7,0.9-15.7
		c3.1-4.9,11.1-5.7,15-1.2c0.1,0.1,0.3,0.2,0.6,0.5c0-0.8,0-1.5,0-2.1s0.2-0.7,0.8-0.8c3.1-0.1,3.1-0.2,3.1,2.9c0,6.9,0,13.7,0,20.6
		c0,1.4-0.2,2.8-0.5,4.2c-0.5,2.8-2.1,4.8-4.6,6c-4.1,1.9-8.2,1.9-12.3,0c-2.4-1.1-3.6-3.1-3.7-5.8c0-0.7,0.2-0.9,0.9-0.8
		c0.4,0.1,0.9,0.2,1.3,0.2c1.1,0.1,1.9,0.2,2.3,1.6c0.6,1.9,2.4,2.4,4.2,2.6c4.1,0.4,6.9-1,7.8-4.5
		C306.7,128.1,306.7,126.5,306.6,124.6z M306.9,115c0-1.7-0.1-3.4-0.8-4.9c-0.8-2-2.2-3.4-4.2-4c-3.8-1.2-7.4,1.2-8.3,5.4
		c-0.5,2.4-0.5,4.8,0,7.1c0.7,3.3,3.1,5.5,6.2,5.6s5.7-1.9,6.6-5.3C306.8,117.6,306.9,116.3,306.9,115z"/>
	<path class="st0" d="M328.6,116.3c-2.8,0-5.5,0-8.3,0c-0.7,0-0.9,0.1-0.8,0.9c0.3,2.1,1,4.1,2.5,5.6c2.9,2.8,8.9,2.8,10.9-2.1
		c0.4-1,0.9-1.1,1.8-1c0.7,0.1,1.3,0.2,2,0.3c0.9,0.1,1.1,0.3,0.8,1.3c-1.4,3.8-4.1,6.1-8.1,6.8c-4.2,0.7-8.1,0.1-11.2-3
		c-1.9-1.9-2.8-4.3-3.1-6.9c-0.3-2.6-0.3-5.3,0.5-7.9c1.7-5.5,6.2-8.4,12.3-8c4.9,0.4,8.9,4.3,9.7,9.5c0.2,1.1,0.2,2.3,0.3,3.5
		c0,0.8-0.2,1.2-1.1,1.1C334.2,116.3,331.4,116.3,328.6,116.3z M326.5,112.8c2.1,0,4.1,0,6.2,0c0.4,0,0.9,0.2,0.8-0.6
		c-0.3-1.5-0.6-2.9-1.6-4.1c-1.9-2.2-4.3-2.8-7-2.1c-2.8,0.7-4.4,2.6-5,5.4c-0.3,1.4-0.5,1.3,1.1,1.3
		C322.8,112.8,324.6,112.8,326.5,112.8z"/>
	<path class="st0" d="M187.8,115.2c-0.1-1.6,0.1-3.3,0.5-4.9c1.3-4.6,4.4-7.2,9-8c5.6-0.9,10.4,1.4,12.5,6.2c2,4.5,1.8,9.2-0.2,13.7
		c-1.6,3.5-4.6,5.3-8.4,5.8c-5.6,0.8-10.4-1.5-12.5-6.5C188,119.6,187.7,117.4,187.8,115.2z M206.7,115.5c0-1.5,0-2.6-0.3-3.8
		c-0.7-3.5-3.4-5.8-6.6-6c-3.4-0.1-6.1,1.8-7.1,5.3c-0.9,3.1-0.8,6.1,0.3,9.1c1.1,2.9,3.5,4.5,6.7,4.5c2.9,0,5.4-1.8,6.4-4.6
		C206.5,118.5,206.7,116.9,206.7,115.5z"/>
	<path class="st0" d="M225.2,128.3c-4.2-0.1-7.1-0.6-9.3-3c-1.2-1.3-1.8-2.8-2.2-4.5c-0.1-0.5,0.1-0.7,0.5-0.7
		c0.3,0,0.6-0.1,0.9-0.2c0.8-0.1,1.7-0.5,2.4-0.3s0.5,1.3,0.9,2c0.8,1.4,1.9,2.3,3.4,2.7c1.7,0.4,3.4,0.4,5.1,0
		c1.1-0.3,1.9-0.9,2.5-1.8c1.1-1.6,0.6-3.4-1.1-4.2c-1.7-0.8-3.5-1.1-5.2-1.6c-1.6-0.4-3.2-0.9-4.7-1.5c-2.5-1-3.9-2.9-4-5.5
		c-0.1-2.7,1-5,3.5-6.2c4.2-2.1,8.5-1.9,12.6,0.4c1.8,1,2.4,2.8,2.9,4.7c0.1,0.5-0.1,0.7-0.6,0.7c-1,0.1-1.9,0.2-2.9,0.4
		c-0.5,0.1-0.7-0.1-0.8-0.5c-0.7-2.4-2.4-3.4-4.7-3.5c-1.1,0-2.2,0-3.2,0.3c-1.5,0.4-2.5,1.5-2.6,2.8c0,1.3,0.7,2.2,2.4,2.7
		c2.7,0.8,5.4,1.5,8,2.4c1.1,0.3,2.3,0.8,3.2,1.6c3.4,2.9,2.8,8.6-1.3,11.1C228.8,127.8,226.5,128.4,225.2,128.3z"/>
	<path class="st0" d="M268.3,106.1c1.6-2.2,3.5-3.4,5.9-3.8c2.3-0.4,4.5-0.2,6.7,0.9c2.4,1.2,3.5,3.2,3.7,5.7
		c0.4,4.1,0.1,8.3,0.2,12.4c0,1.8,0,3.5,0,5.3c0,0.9-0.3,1.2-1.2,1.1c-0.7-0.1-1.3-0.1-2,0c-0.9,0.1-1.1-0.2-1.1-1.1
		c0-4.5,0-9,0-13.4c0-1-0.1-2.1-0.2-3.1c-0.3-2.7-2.7-4.5-5.4-4.1c-4.3,0.5-6.1,2.8-6.2,7.7c0,4.3,0,8.7,0,13c0,0.8-0.2,1.2-1.1,1.1
		c-1-0.1-2.3,0.4-2.9-0.2c-0.7-0.7-0.2-2-0.2-3c0-6.9,0-13.7,0-20.6c0-0.9,0.1-1.2,1.1-1.2c2.7,0.1,2.7,0,2.7,2.7
		C268.3,105.5,268.3,105.6,268.3,106.1z"/>
	<path class="st0" d="M346.3,106c3-3.7,6.7-4.5,10.9-3.4c3.4,0.9,5.4,3.3,5.5,6.9c0.1,5.8,0,11.6,0.1,17.4c0,0.6-0.2,0.9-0.8,0.9
		c-0.8,0-1.6-0.1-2.5,0c-0.8,0.1-1-0.3-1-1c0-4.8,0-9.6,0-14.3c0-0.9-0.1-1.7-0.2-2.6c-0.4-2.8-2.9-4.1-5.4-3.9
		c-4,0.4-6,2.6-6.1,6.7c-0.1,4.6-0.1,9.2,0,13.8c0,1.1-0.3,1.4-1.4,1.4c-2.9-0.1-2.9,0-2.9-3c0-7,0-14,0-20.9c0-0.8,0.1-1.1,1-1.1
		c2.8,0,2.8,0,2.8,2.8C346.3,105.6,346.3,105.7,346.3,106z"/>
	<path class="st0" d="M254.8,124.6c-2.2,2.5-4.8,3.7-8.1,3.7c-5-0.1-8.1-2.9-8.2-7.8c-0.1-5.6,0-11.3-0.1-16.9
		c0-0.7,0.2-0.8,0.8-0.8c0.8,0,1.6,0.1,2.5,0c0.8-0.1,1,0.3,1,1c0,4.9,0,9.9,0,14.8c0,0.9,0.1,1.7,0.3,2.6c0.7,2.8,3.5,4.1,6.6,3.2
		c3-0.8,4.6-2.9,4.7-6.4c0.1-4.6,0.1-9.3,0-13.9c0-1,0.3-1.4,1.3-1.3c0.7,0.1,1.5,0,2.2,0c0.6,0,0.8,0.2,0.8,0.8
		c0,7.8,0,15.6,0,23.4c0,0.1,0,0.3,0,0.3c-0.8,1-2,0.3-3,0.5c-0.5,0.1-0.9,0-0.9-0.7C254.9,126.2,254.8,125.4,254.8,124.6z"/>
	<path class="st0" d="M163.7,110.5c0-5.4,0-10.8,0-16.1c0-0.8,0.2-1.2,1-1.1c1.2,0.1,2.7-0.5,3.4,0.3c0.6,0.7,0.2,2.2,0.2,3.3
		c0,8.5,0,17,0,25.5c0,0.9,0.2,1.2,1.2,1.2c4.9,0,9.7,0,14.6,0c1,0,1.2,0.3,1.2,1.2c-0.1,0.7-0.1,1.4,0,2.1s-0.3,0.9-0.9,0.9
		c-6.5,0-13.1,0-19.6,0c-0.9,0-1-0.4-1-1.2C163.7,121.2,163.7,115.8,163.7,110.5z"/>
	<path class="st1" d="M479.5,21.1c-1.5,0-3.1,0-4.6,0c-0.6,0-0.9-0.1-0.9-0.8c0-2.9,0-5.7,0-8.6c0-0.5,0.1-0.8,0.7-0.8
		c3.2,0,6.3,0,9.5,0c0.6,0,0.8,0.2,0.8,0.9c0,2.8,0,5.7,0,8.5c0,0.7-0.3,0.9-0.9,0.9C482.6,21.1,481,21.1,479.5,21.1z"/>
	<path class="st0" d="M197.7,97.2c0,2.6,0,2.6-2.4,2.6c-2.1,0-2.1,0-2.1-2.2c0-2.8,0-2.8,2.8-2.8c1.7,0,1.7,0,1.7,1.7
		C197.7,96.7,197.7,97,197.7,97.2z"/>
	<path class="st0" d="M201.9,97.2c0-2.4,0-2.4,2.4-2.4c2.1,0,2.1,0,2.1,2.1c0,2.8,0,2.8-2.8,2.8c-0.3,0-0.6,0-0.9,0
		c-0.6,0.1-0.8-0.2-0.8-0.8C202,98.4,201.9,97.8,201.9,97.2z"/>
</g>
</svg>
