<?xml version="1.0" encoding="utf-8"?>
<!-- Generator: Adobe Illustrator 22.0.0, SVG Export Plug-In . SVG Version: 6.00 Build 0)  -->
<svg version="1.1" id="Layer_1" xmlns="http://www.w3.org/2000/svg" xmlns:xlink="http://www.w3.org/1999/xlink" x="0px" y="0px"
	 viewBox="0 0 228 173.3" style="enable-background:new 0 0 228 173.3;" xml:space="preserve">
<style type="text/css">
	.st0{fill:#65A3AE;}
</style>
<path class="st0" d="M199.7,97.7H37c-6,0-11-4.9-11-11v0c0-6,4.9-11,11-11h162.7c6.1,0,11,4.9,11,11v0
	C210.7,92.7,205.7,97.7,199.7,97.7z"/>
<path class="st0" d="M199.7,141H37c-6,0-11-4.9-11-11v0c0-6,4.9-11,11-11h162.7c6.1,0,11,4.9,11,11v0
	C210.7,136.1,205.7,141,199.7,141z"/>
<path class="st0" d="M199.7,54.3H37c-6,0-11-4.9-11-11v0c0-6,4.9-11,11-11h162.7c6.1,0,11,4.9,11,11v0
	C210.7,49.4,205.7,54.3,199.7,54.3z"/>
</svg>
