<?xml version="1.0" encoding="utf-8"?>
<!-- Generator: Adobe Illustrator 22.0.0, SVG Export Plug-In . SVG Version: 6.00 Build 0)  -->
<svg version="1.1" id="Layer_1" xmlns="http://www.w3.org/2000/svg" xmlns:xlink="http://www.w3.org/1999/xlink" x="0px" y="0px"
	 viewBox="0 0 1920 139.3" style="enable-background:new 0 0 1920 139.3;" xml:space="preserve">
<style type="text/css">
	.st0{fill:#65A3AE;stroke:#65A3AE;stroke-width:3;stroke-miterlimit:10;}
	.st1{fill:#65A3AE;stroke:#65A3AE;stroke-width:3;stroke-miterlimit:10;stroke-dasharray:11.77,11.77;}
	.st2{fill:none;stroke:#65A3AE;stroke-width:3;stroke-miterlimit:10;}
</style>
<title>Recurso 11</title>
<line class="st0" x1="235.6" y1="53.4" x2="1920" y2="53.4"/>
<line class="st0" x1="0" y1="53.4" x2="6" y2="53.4"/>
<line class="st1" x1="17.8" y1="53.4" x2="223.7" y2="53.4"/>
<line class="st0" x1="229.6" y1="53.4" x2="235.6" y2="53.4"/>
<rect x="416.8" y="39" class="st0" width="28.7" height="28.7"/>
<rect x="777.3" y="41.3" class="st0" width="28.7" height="28.7"/>
<rect x="1108.6" y="38.1" class="st0" width="28.7" height="28.7"/>
<rect x="1486.3" y="38.1" class="st0" width="28.7" height="28.7"/>
<g>
	<path d="M432.4,14.9L432.4,14.9l-2.8,1.5l-0.4-1.6l3.4-1.8h1.8v15.6h-2V14.9z"/>
</g>
<g>
	<path d="M786.7,28.7v-1.3l1.7-1.6c4-3.8,5.8-5.8,5.8-8.2c0-1.6-0.8-3-3.1-3c-1.4,0-2.6,0.7-3.3,1.3l-0.7-1.5
		c1.1-0.9,2.6-1.6,4.4-1.6c3.4,0,4.8,2.3,4.8,4.5c0,2.9-2.1,5.2-5.4,8.4l-1.2,1.2v0h7v1.8H786.7z"/>
</g>
<g>
	<path d="M1118.6,22.3c0.6,0.4,2,1,3.5,1c2.7,0,3.6-1.7,3.5-3c0-2.2-2-3.1-4-3.1h-1.2v-1.6h1.2c1.5,0,3.5-0.8,3.5-2.6
		c0-1.2-0.8-2.4-2.7-2.4c-1.2,0-2.4,0.6-3.1,1l-0.6-1.5c0.8-0.6,2.4-1.2,4.1-1.2c3.1,0,4.5,1.8,4.5,3.7c0,1.6-1,3-2.9,3.7v0
		c1.9,0.4,3.5,1.8,3.5,4c0,2.5-1.9,4.7-5.7,4.7c-1.8,0-3.3-0.6-4.1-1.1L1118.6,22.3z"/>
</g>
<g>
	<path d="M1501.3,26.7v-4.2h-7.2V21l7-10h2.3v9.7h2.2v1.7h-2.2v4.2H1501.3z M1501.3,20.8v-5.2c0-0.8,0-1.6,0.1-2.4h-0.1
		c-0.5,0.9-0.9,1.6-1.3,2.3l-3.8,5.3v0H1501.3z"/>
</g>
<polyline class="st2" points="586.4,34.3 604.6,52.4 586.4,70.6 "/>
<polyline class="st2" points="939.2,35.2 957.3,53.4 939.2,71.5 "/>
<polyline class="st2" points="1293.6,35.2 1311.8,53.4 1293.6,71.5 "/>
<g>
	<path d="M380.7,81.7c1-0.2,2.3-0.3,4-0.3c2.1,0,3.6,0.5,4.5,1.3c0.9,0.8,1.4,1.9,1.4,3.4c0,1.5-0.4,2.6-1.2,3.5
		c-1.1,1.2-2.9,1.8-4.9,1.8c-0.6,0-1.2,0-1.7-0.1v6.5h-2.1V81.7z M382.8,89.5c0.5,0.1,1,0.2,1.7,0.2c2.5,0,4.1-1.2,4.1-3.5
		c0-2.1-1.5-3.2-3.8-3.2c-0.9,0-1.6,0.1-2,0.2V89.5z"/>
	<path d="M393,89.7c0-1.4,0-2.5-0.1-3.6h1.8l0.1,2.3h0.1c0.5-1.6,1.8-2.5,3.2-2.5c0.2,0,0.4,0,0.6,0.1v2c-0.2,0-0.4-0.1-0.7-0.1
		c-1.5,0-2.5,1.1-2.8,2.7c0,0.3-0.1,0.6-0.1,1v6.2H393V89.7z"/>
	<path d="M411.1,91.8c0,4.3-3,6.2-5.8,6.2c-3.1,0-5.6-2.3-5.6-6c0-3.9,2.5-6.2,5.8-6.2C408.9,85.8,411.1,88.2,411.1,91.8z
		 M401.9,91.9c0,2.5,1.5,4.5,3.5,4.5c2,0,3.5-1.9,3.5-4.5c0-2-1-4.5-3.5-4.5S401.9,89.7,401.9,91.9z"/>
	<path d="M423.8,80.6v14c0,1,0,2.2,0.1,3H422l-0.1-2h0c-0.6,1.3-2.1,2.3-4,2.3c-2.8,0-5-2.4-5-5.9c0-3.9,2.4-6.2,5.2-6.2
		c1.8,0,3,0.8,3.5,1.8h0v-6.9H423.8z M421.7,90.8c0-0.3,0-0.6-0.1-0.9c-0.3-1.3-1.5-2.4-3-2.4c-2.2,0-3.5,1.9-3.5,4.5
		c0,2.4,1.2,4.3,3.4,4.3c1.4,0,2.7-0.9,3.1-2.5c0.1-0.3,0.1-0.6,0.1-0.9V90.8z"/>
	<path d="M437.1,94.5c0,1.2,0,2.3,0.1,3.2h-1.9l-0.1-1.9h0c-0.6,0.9-1.8,2.2-3.8,2.2c-1.8,0-4-1-4-5.1V86h2.1v6.4
		c0,2.2,0.7,3.7,2.6,3.7c1.4,0,2.4-1,2.8-1.9c0.1-0.3,0.2-0.7,0.2-1.1V86h2.1V94.5z"/>
	<path d="M448.8,97.2c-0.6,0.3-1.8,0.7-3.3,0.7c-3.5,0-5.8-2.4-5.8-5.9c0-3.6,2.4-6.2,6.2-6.2c1.2,0,2.4,0.3,2.9,0.6l-0.5,1.6
		c-0.5-0.3-1.3-0.6-2.4-0.6c-2.7,0-4.1,2-4.1,4.4c0,2.7,1.7,4.3,4,4.3c1.2,0,2-0.3,2.6-0.6L448.8,97.2z"/>
	<path d="M454.2,82.7V86h3v1.6h-3v6.3c0,1.4,0.4,2.3,1.6,2.3c0.6,0,1-0.1,1.2-0.1l0.1,1.6c-0.4,0.2-1.1,0.3-1.9,0.3
		c-1,0-1.8-0.3-2.3-0.9c-0.6-0.6-0.8-1.7-0.8-3v-6.3h-1.8V86h1.8v-2.8L454.2,82.7z"/>
	<path d="M461.9,82.8c0,0.7-0.5,1.3-1.3,1.3c-0.7,0-1.3-0.6-1.3-1.3c0-0.7,0.6-1.3,1.3-1.3C461.4,81.5,461.9,82,461.9,82.8z
		 M459.6,97.7V86h2.1v11.6H459.6z"/>
	<path d="M475.7,91.8c0,4.3-3,6.2-5.8,6.2c-3.1,0-5.6-2.3-5.6-6c0-3.9,2.5-6.2,5.8-6.2C473.4,85.8,475.7,88.2,475.7,91.8z
		 M466.5,91.9c0,2.5,1.5,4.5,3.5,4.5c2,0,3.5-1.9,3.5-4.5c0-2-1-4.5-3.5-4.5S466.5,89.7,466.5,91.9z"/>
	<path d="M478.4,89.2c0-1.2,0-2.2-0.1-3.1h1.9l0.1,1.9h0c0.6-1.1,1.9-2.2,3.8-2.2c1.6,0,4.1,1,4.1,4.9v6.9h-2.1V91
		c0-1.9-0.7-3.4-2.7-3.4c-1.4,0-2.5,1-2.8,2.2c-0.1,0.3-0.1,0.6-0.1,1v7h-2.1V89.2z"/>
	<path d="M391.8,110.5c1-0.2,2.3-0.3,4-0.3c2.1,0,3.6,0.5,4.5,1.3c0.9,0.8,1.4,1.9,1.4,3.4c0,1.5-0.4,2.6-1.2,3.5
		c-1.1,1.2-2.9,1.8-4.9,1.8c-0.6,0-1.2,0-1.7-0.1v6.5h-2.1V110.5z M393.9,118.3c0.5,0.1,1,0.2,1.7,0.2c2.5,0,4.1-1.2,4.1-3.5
		c0-2.1-1.5-3.2-3.8-3.2c-0.9,0-1.6,0.1-2,0.2V118.3z"/>
	<path d="M404.4,109.4h2.1v17h-2.1V109.4z"/>
	<path d="M416.5,126.5l-0.2-1.5h-0.1c-0.6,0.9-1.9,1.7-3.6,1.7c-2.4,0-3.6-1.7-3.6-3.3c0-2.8,2.5-4.3,7-4.3v-0.2
		c0-1-0.3-2.7-2.6-2.7c-1.1,0-2.2,0.3-3,0.9l-0.5-1.4c1-0.6,2.4-1,3.8-1c3.6,0,4.4,2.4,4.4,4.8v4.3c0,1,0,2,0.2,2.8H416.5z
		 M416.2,120.5c-2.3,0-4.9,0.4-4.9,2.6c0,1.4,0.9,2,2,2c1.5,0,2.5-1,2.8-1.9c0.1-0.2,0.1-0.5,0.1-0.7V120.5z"/>
	<path d="M421.6,118c0-1.2,0-2.2-0.1-3.1h1.9l0.1,1.9h0c0.6-1.1,1.9-2.2,3.8-2.2c1.6,0,4.1,1,4.1,4.9v6.9h-2.1v-6.7
		c0-1.9-0.7-3.4-2.7-3.4c-1.4,0-2.5,1-2.8,2.2c-0.1,0.3-0.1,0.6-0.1,1v7h-2.1V118z"/>
	<path d="M434.9,118c0-1.2,0-2.2-0.1-3.1h1.9l0.1,1.9h0c0.6-1.1,1.9-2.2,3.8-2.2c1.6,0,4.1,1,4.1,4.9v6.9h-2.1v-6.7
		c0-1.9-0.7-3.4-2.7-3.4c-1.4,0-2.5,1-2.8,2.2c-0.1,0.3-0.1,0.6-0.1,1v7h-2.1V118z"/>
	<path d="M450.6,111.6c0,0.7-0.5,1.3-1.3,1.3c-0.7,0-1.3-0.6-1.3-1.3c0-0.7,0.6-1.3,1.3-1.3C450.1,110.3,450.6,110.8,450.6,111.6z
		 M448.2,126.5v-11.6h2.1v11.6H448.2z"/>
	<path d="M453.9,118c0-1.2,0-2.2-0.1-3.1h1.9l0.1,1.9h0c0.6-1.1,1.9-2.2,3.8-2.2c1.6,0,4.1,1,4.1,4.9v6.9h-2.1v-6.7
		c0-1.9-0.7-3.4-2.7-3.4c-1.4,0-2.5,1-2.8,2.2c-0.1,0.3-0.1,0.6-0.1,1v7h-2.1V118z"/>
	<path d="M477.2,114.8c0,0.8-0.1,1.8-0.1,3.2v6.7c0,2.7-0.5,4.3-1.7,5.3c-1.1,1.1-2.8,1.4-4.2,1.4c-1.4,0-2.9-0.3-3.9-1l0.5-1.6
		c0.8,0.5,2,0.9,3.4,0.9c2.2,0,3.7-1.1,3.7-4.1v-1.3h0c-0.6,1.1-1.9,1.9-3.7,1.9c-2.9,0-4.9-2.4-4.9-5.7c0-3.9,2.6-6.2,5.2-6.2
		c2,0,3.1,1.1,3.6,2h0l0.1-1.8H477.2z M475,119.4c0-0.4,0-0.7-0.1-1c-0.4-1.2-1.4-2.2-3-2.2c-2,0-3.5,1.7-3.5,4.4
		c0,2.3,1.2,4.2,3.4,4.2c1.3,0,2.5-0.8,2.9-2.2c0.1-0.4,0.2-0.8,0.2-1.1V119.4z"/>
</g>
<g>
	<path d="M764.1,90.6c-0.1-2.3-0.3-5-0.2-7h-0.1c-0.6,1.9-1.2,3.9-2,6.1l-2.9,7.8h-1.6l-2.6-7.7c-0.8-2.3-1.4-4.4-1.9-6.3h0
		c0,2-0.2,4.7-0.3,7.2l-0.4,6.9h-2l1.1-16.2h2.7l2.8,7.8c0.7,2,1.2,3.8,1.6,5.4h0.1c0.4-1.6,1-3.4,1.7-5.4l2.9-7.8h2.7l1,16.2h-2
		L764.1,90.6z"/>
	<path d="M776.3,97.7l-0.2-1.5H776c-0.6,0.9-1.9,1.7-3.6,1.7c-2.4,0-3.6-1.7-3.6-3.3c0-2.8,2.5-4.3,7-4.3V90c0-1-0.3-2.7-2.6-2.7
		c-1.1,0-2.2,0.3-3,0.9l-0.5-1.4c1-0.6,2.4-1,3.8-1c3.6,0,4.4,2.4,4.4,4.8v4.3c0,1,0,2,0.2,2.8H776.3z M775.9,91.7
		c-2.3,0-4.9,0.4-4.9,2.6c0,1.4,0.9,2,2,2c1.5,0,2.5-1,2.8-1.9c0.1-0.2,0.1-0.5,0.1-0.7V91.7z"/>
	<path d="M789.7,97.2c-0.6,0.3-1.8,0.7-3.3,0.7c-3.5,0-5.8-2.4-5.8-5.9c0-3.6,2.4-6.2,6.2-6.2c1.2,0,2.4,0.3,2.9,0.6l-0.5,1.6
		c-0.5-0.3-1.3-0.6-2.4-0.6c-2.7,0-4.1,2-4.1,4.4c0,2.7,1.7,4.3,4,4.3c1.2,0,2-0.3,2.6-0.6L789.7,97.2z"/>
	<path d="M792.1,80.6h2.1v7.2h0c0.3-0.6,0.9-1.1,1.5-1.5c0.6-0.4,1.4-0.6,2.2-0.6c1.6,0,4.1,1,4.1,5v6.9h-2.1V91
		c0-1.9-0.7-3.5-2.7-3.5c-1.4,0-2.4,1-2.8,2.1c-0.1,0.3-0.1,0.6-0.1,1v7h-2.1V80.6z"/>
	<path d="M807.8,82.8c0,0.7-0.5,1.3-1.3,1.3c-0.7,0-1.3-0.6-1.3-1.3c0-0.7,0.6-1.3,1.3-1.3C807.3,81.5,807.8,82,807.8,82.8z
		 M805.5,97.7V86h2.1v11.6H805.5z"/>
	<path d="M811.1,89.2c0-1.2,0-2.2-0.1-3.1h1.9L813,88h0c0.6-1.1,1.9-2.2,3.8-2.2c1.6,0,4.1,1,4.1,4.9v6.9h-2.1V91
		c0-1.9-0.7-3.4-2.7-3.4c-1.4,0-2.5,1-2.8,2.2c-0.1,0.3-0.1,0.6-0.1,1v7h-2.1V89.2z"/>
	<path d="M825.6,92.2c0,2.9,1.9,4,4,4c1.5,0,2.4-0.3,3.2-0.6l0.4,1.5c-0.7,0.3-2,0.7-3.9,0.7c-3.6,0-5.7-2.4-5.7-5.9
		c0-3.5,2.1-6.3,5.4-6.3c3.8,0,4.8,3.3,4.8,5.5c0,0.4,0,0.8-0.1,1H825.6z M831.8,90.7c0-1.3-0.6-3.4-2.9-3.4c-2.1,0-3.1,2-3.2,3.4
		H831.8z"/>
	<path d="M741,118.9h-6.3v5.8h7v1.8h-9.1v-16.2h8.7v1.8h-6.6v5.1h6.3V118.9z"/>
	<path d="M744.4,118c0-1.2,0-2.2-0.1-3.1h1.9l0.1,1.9h0c0.6-1.1,1.9-2.2,3.8-2.2c1.6,0,4.1,1,4.1,4.9v6.9h-2.1v-6.7
		c0-1.9-0.7-3.4-2.7-3.4c-1.4,0-2.5,1-2.8,2.2c-0.1,0.3-0.1,0.6-0.1,1v7h-2.1V118z"/>
	<path d="M767.7,114.8c0,0.8-0.1,1.8-0.1,3.2v6.7c0,2.7-0.5,4.3-1.7,5.3c-1.1,1.1-2.8,1.4-4.2,1.4c-1.4,0-2.9-0.3-3.9-1l0.5-1.6
		c0.8,0.5,2,0.9,3.4,0.9c2.2,0,3.7-1.1,3.7-4.1v-1.3h0c-0.6,1.1-1.9,1.9-3.7,1.9c-2.9,0-4.9-2.4-4.9-5.7c0-3.9,2.6-6.2,5.2-6.2
		c2,0,3.1,1.1,3.6,2h0l0.1-1.8H767.7z M765.5,119.4c0-0.4,0-0.7-0.1-1c-0.4-1.2-1.4-2.2-3-2.2c-2,0-3.5,1.7-3.5,4.4
		c0,2.3,1.2,4.2,3.4,4.2c1.3,0,2.5-0.8,2.9-2.2c0.1-0.4,0.2-0.8,0.2-1.1V119.4z"/>
	<path d="M773.3,111.6c0,0.7-0.5,1.3-1.3,1.3c-0.7,0-1.3-0.6-1.3-1.3c0-0.7,0.6-1.3,1.3-1.3C772.8,110.3,773.3,110.8,773.3,111.6z
		 M771,126.5v-11.6h2.1v11.6H771z"/>
	<path d="M776.6,118c0-1.2,0-2.2-0.1-3.1h1.9l0.1,1.9h0c0.6-1.1,1.9-2.2,3.8-2.2c1.6,0,4.1,1,4.1,4.9v6.9h-2.1v-6.7
		c0-1.9-0.7-3.4-2.7-3.4c-1.4,0-2.5,1-2.8,2.2c-0.1,0.3-0.1,0.6-0.1,1v7h-2.1V118z"/>
	<path d="M791.1,121c0,2.9,1.9,4,4,4c1.5,0,2.4-0.3,3.2-0.6l0.4,1.5c-0.7,0.3-2,0.7-3.9,0.7c-3.6,0-5.7-2.4-5.7-5.9
		c0-3.5,2.1-6.3,5.4-6.3c3.8,0,4.8,3.3,4.8,5.5c0,0.4,0,0.8-0.1,1H791.1z M797.3,119.5c0-1.3-0.6-3.4-2.9-3.4c-2.1,0-3.1,2-3.2,3.4
		H797.3z"/>
	<path d="M803.1,121c0,2.9,1.9,4,4,4c1.5,0,2.4-0.3,3.2-0.6l0.4,1.5c-0.7,0.3-2,0.7-3.9,0.7c-3.6,0-5.7-2.4-5.7-5.9
		c0-3.5,2.1-6.3,5.4-6.3c3.8,0,4.8,3.3,4.8,5.5c0,0.4,0,0.8-0.1,1H803.1z M809.3,119.5c0-1.3-0.6-3.4-2.9-3.4c-2.1,0-3.1,2-3.2,3.4
		H809.3z"/>
	<path d="M813.9,118.5c0-1.4,0-2.5-0.1-3.6h1.8l0.1,2.3h0.1c0.5-1.6,1.8-2.5,3.2-2.5c0.2,0,0.4,0,0.6,0.1v2c-0.2,0-0.4-0.1-0.7-0.1
		c-1.5,0-2.5,1.1-2.8,2.7c0,0.3-0.1,0.6-0.1,1v6.2h-2.1V118.5z"/>
	<path d="M824.2,111.6c0,0.7-0.5,1.3-1.3,1.3c-0.7,0-1.3-0.6-1.3-1.3c0-0.7,0.6-1.3,1.3-1.3C823.7,110.3,824.2,110.8,824.2,111.6z
		 M821.9,126.5v-11.6h2.1v11.6H821.9z"/>
	<path d="M827.5,118c0-1.2,0-2.2-0.1-3.1h1.9l0.1,1.9h0c0.6-1.1,1.9-2.2,3.8-2.2c1.6,0,4.1,1,4.1,4.9v6.9h-2.1v-6.7
		c0-1.9-0.7-3.4-2.7-3.4c-1.4,0-2.5,1-2.8,2.2c-0.1,0.3-0.1,0.6-0.1,1v7h-2.1V118z"/>
	<path d="M850.8,114.8c0,0.8-0.1,1.8-0.1,3.2v6.7c0,2.7-0.5,4.3-1.7,5.3c-1.1,1.1-2.8,1.4-4.2,1.4c-1.4,0-2.9-0.3-3.9-1l0.5-1.6
		c0.8,0.5,2,0.9,3.4,0.9c2.2,0,3.7-1.1,3.7-4.1v-1.3h0c-0.6,1.1-1.9,1.9-3.7,1.9c-2.9,0-4.9-2.4-4.9-5.7c0-3.9,2.6-6.2,5.2-6.2
		c2,0,3.1,1.1,3.6,2h0l0.1-1.8H850.8z M848.6,119.4c0-0.4,0-0.7-0.1-1c-0.4-1.2-1.4-2.2-3-2.2c-2,0-3.5,1.7-3.5,4.4
		c0,2.3,1.2,4.2,3.4,4.2c1.3,0,2.5-0.8,2.9-2.2c0.1-0.4,0.2-0.8,0.2-1.1V119.4z"/>
</g>
<g>
	<path d="M1095.4,90.6c-0.1-2.3-0.3-5-0.2-7h-0.1c-0.6,1.9-1.2,3.9-2,6.1l-2.9,7.8h-1.6l-2.6-7.7c-0.8-2.3-1.4-4.4-1.9-6.3h0
		c0,2-0.2,4.7-0.3,7.2l-0.4,6.9h-2l1.1-16.2h2.7l2.8,7.8c0.7,2,1.2,3.8,1.6,5.4h0.1c0.4-1.6,1-3.4,1.7-5.4l2.9-7.8h2.7l1,16.2h-2
		L1095.4,90.6z"/>
	<path d="M1107.5,97.7l-0.2-1.5h-0.1c-0.6,0.9-1.9,1.7-3.6,1.7c-2.4,0-3.6-1.7-3.6-3.3c0-2.8,2.5-4.3,7-4.3V90c0-1-0.3-2.7-2.6-2.7
		c-1.1,0-2.2,0.3-3,0.9l-0.5-1.4c1-0.6,2.4-1,3.8-1c3.6,0,4.4,2.4,4.4,4.8v4.3c0,1,0,2,0.2,2.8H1107.5z M1107.2,91.7
		c-2.3,0-4.9,0.4-4.9,2.6c0,1.4,0.9,2,2,2c1.5,0,2.5-1,2.8-1.9c0.1-0.2,0.1-0.5,0.1-0.7V91.7z"/>
	<path d="M1121,97.2c-0.6,0.3-1.8,0.7-3.3,0.7c-3.5,0-5.8-2.4-5.8-5.9c0-3.6,2.4-6.2,6.2-6.2c1.2,0,2.4,0.3,2.9,0.6l-0.5,1.6
		c-0.5-0.3-1.3-0.6-2.4-0.6c-2.7,0-4.1,2-4.1,4.4c0,2.7,1.7,4.3,4,4.3c1.2,0,2-0.3,2.6-0.6L1121,97.2z"/>
	<path d="M1123.4,80.6h2.1v7.2h0c0.3-0.6,0.9-1.1,1.5-1.5c0.6-0.4,1.4-0.6,2.2-0.6c1.6,0,4.1,1,4.1,5v6.9h-2.1V91
		c0-1.9-0.7-3.5-2.7-3.5c-1.4,0-2.4,1-2.8,2.1c-0.1,0.3-0.1,0.6-0.1,1v7h-2.1V80.6z"/>
	<path d="M1139.1,82.8c0,0.7-0.5,1.3-1.3,1.3c-0.7,0-1.3-0.6-1.3-1.3c0-0.7,0.6-1.3,1.3-1.3C1138.6,81.5,1139.1,82,1139.1,82.8z
		 M1136.7,97.7V86h2.1v11.6H1136.7z"/>
	<path d="M1142.4,89.2c0-1.2,0-2.2-0.1-3.1h1.9l0.1,1.9h0c0.6-1.1,1.9-2.2,3.8-2.2c1.6,0,4.1,1,4.1,4.9v6.9h-2.1V91
		c0-1.9-0.7-3.4-2.7-3.4c-1.4,0-2.5,1-2.8,2.2c-0.1,0.3-0.1,0.6-0.1,1v7h-2.1V89.2z"/>
	<path d="M1156.9,92.2c0,2.9,1.9,4,4,4c1.5,0,2.4-0.3,3.2-0.6l0.4,1.5c-0.7,0.3-2,0.7-3.9,0.7c-3.6,0-5.7-2.4-5.7-5.9
		c0-3.5,2.1-6.3,5.4-6.3c3.8,0,4.8,3.3,4.8,5.5c0,0.4,0,0.8-0.1,1H1156.9z M1163.1,90.7c0-1.3-0.6-3.4-2.9-3.4c-2.1,0-3.1,2-3.2,3.4
		H1163.1z"/>
	<path d="M1062.8,125.9c-0.8,0.4-2.3,0.8-4.3,0.8c-4.6,0-8-2.9-8-8.2c0-5.1,3.4-8.5,8.4-8.5c2,0,3.3,0.4,3.8,0.7l-0.5,1.7
		c-0.8-0.4-1.9-0.7-3.3-0.7c-3.8,0-6.3,2.4-6.3,6.7c0,4,2.3,6.5,6.2,6.5c1.3,0,2.6-0.3,3.4-0.7L1062.8,125.9z"/>
	<path d="M1075.6,120.6c0,4.3-3,6.2-5.8,6.2c-3.1,0-5.6-2.3-5.6-6c0-3.9,2.5-6.2,5.8-6.2C1073.4,114.6,1075.6,117,1075.6,120.6z
		 M1066.4,120.7c0,2.5,1.5,4.5,3.5,4.5c2,0,3.5-1.9,3.5-4.5c0-2-1-4.5-3.5-4.5S1066.4,118.5,1066.4,120.7z"/>
	<path d="M1078.3,118c0-1.2,0-2.2-0.1-3.1h1.8l0.1,1.9h0.1c0.6-1.1,1.7-2.1,3.6-2.1c1.6,0,2.8,1,3.3,2.3h0c0.4-0.6,0.8-1.2,1.3-1.5
		c0.7-0.5,1.5-0.8,2.6-0.8c1.5,0,3.8,1,3.8,5v6.8h-2.1v-6.6c0-2.2-0.8-3.6-2.5-3.6c-1.2,0-2.1,0.9-2.5,1.9c-0.1,0.3-0.2,0.7-0.2,1.1
		v7.2h-2.1v-7c0-1.8-0.8-3.2-2.4-3.2c-1.3,0-2.3,1.1-2.6,2.1c-0.1,0.3-0.2,0.7-0.2,1v7h-2.1V118z"/>
	<path d="M1098.3,118c0-1.2,0-2.2-0.1-3.1h1.8l0.1,1.9h0.1c0.6-1.1,1.7-2.1,3.6-2.1c1.6,0,2.8,1,3.3,2.3h0c0.4-0.6,0.8-1.2,1.3-1.5
		c0.7-0.5,1.5-0.8,2.6-0.8c1.5,0,3.8,1,3.8,5v6.8h-2.1v-6.6c0-2.2-0.8-3.6-2.5-3.6c-1.2,0-2.1,0.9-2.5,1.9c-0.1,0.3-0.2,0.7-0.2,1.1
		v7.2h-2.1v-7c0-1.8-0.8-3.2-2.4-3.2c-1.3,0-2.3,1.1-2.6,2.1c-0.1,0.3-0.2,0.7-0.2,1v7h-2.1V118z"/>
	<path d="M1120.7,111.6c0,0.7-0.5,1.3-1.3,1.3c-0.7,0-1.3-0.6-1.3-1.3c0-0.7,0.6-1.3,1.3-1.3
		C1120.2,110.3,1120.7,110.8,1120.7,111.6z M1118.3,126.5v-11.6h2.1v11.6H1118.3z"/>
	<path d="M1123.7,124.3c0.6,0.4,1.7,0.8,2.8,0.8c1.5,0,2.3-0.8,2.3-1.7c0-1-0.6-1.6-2.2-2.1c-2.1-0.7-3.1-1.9-3.1-3.3
		c0-1.9,1.5-3.4,4-3.4c1.2,0,2.2,0.3,2.9,0.7l-0.5,1.5c-0.5-0.3-1.3-0.7-2.4-0.7c-1.2,0-1.9,0.7-1.9,1.6c0,1,0.7,1.4,2.2,2
		c2,0.8,3,1.8,3,3.5c0,2-1.6,3.5-4.3,3.5c-1.3,0-2.4-0.3-3.3-0.8L1123.7,124.3z"/>
	<path d="M1135.8,111.6c0,0.7-0.5,1.3-1.3,1.3c-0.7,0-1.3-0.6-1.3-1.3c0-0.7,0.6-1.3,1.3-1.3
		C1135.3,110.3,1135.8,110.8,1135.8,111.6z M1133.4,126.5v-11.6h2.1v11.6H1133.4z"/>
	<path d="M1149.6,120.6c0,4.3-3,6.2-5.8,6.2c-3.1,0-5.6-2.3-5.6-6c0-3.9,2.5-6.2,5.8-6.2C1147.3,114.6,1149.6,117,1149.6,120.6z
		 M1140.4,120.7c0,2.5,1.5,4.5,3.5,4.5c2,0,3.5-1.9,3.5-4.5c0-2-1-4.5-3.5-4.5S1140.4,118.5,1140.4,120.7z"/>
	<path d="M1152.2,118c0-1.2,0-2.2-0.1-3.1h1.9l0.1,1.9h0c0.6-1.1,1.9-2.2,3.8-2.2c1.6,0,4.1,1,4.1,4.9v6.9h-2.1v-6.7
		c0-1.9-0.7-3.4-2.7-3.4c-1.4,0-2.5,1-2.8,2.2c-0.1,0.3-0.1,0.6-0.1,1v7h-2.1V118z"/>
	<path d="M1167.9,111.6c0,0.7-0.5,1.3-1.3,1.3c-0.7,0-1.3-0.6-1.3-1.3c0-0.7,0.6-1.3,1.3-1.3
		C1167.4,110.3,1167.9,110.8,1167.9,111.6z M1165.6,126.5v-11.6h2.1v11.6H1165.6z"/>
	<path d="M1171.2,118c0-1.2,0-2.2-0.1-3.1h1.9l0.1,1.9h0c0.6-1.1,1.9-2.2,3.8-2.2c1.6,0,4.1,1,4.1,4.9v6.9h-2.1v-6.7
		c0-1.9-0.7-3.4-2.7-3.4c-1.4,0-2.5,1-2.8,2.2c-0.1,0.3-0.1,0.6-0.1,1v7h-2.1V118z"/>
	<path d="M1194.5,114.8c0,0.8-0.1,1.8-0.1,3.2v6.7c0,2.7-0.5,4.3-1.7,5.3c-1.1,1.1-2.8,1.4-4.2,1.4c-1.4,0-2.9-0.3-3.9-1l0.5-1.6
		c0.8,0.5,2,0.9,3.4,0.9c2.2,0,3.7-1.1,3.7-4.1v-1.3h0c-0.6,1.1-1.9,1.9-3.7,1.9c-2.9,0-4.9-2.4-4.9-5.7c0-3.9,2.6-6.2,5.2-6.2
		c2,0,3.1,1.1,3.6,2h0l0.1-1.8H1194.5z M1192.3,119.4c0-0.4,0-0.7-0.1-1c-0.4-1.2-1.4-2.2-3-2.2c-2,0-3.5,1.7-3.5,4.4
		c0,2.3,1.2,4.2,3.4,4.2c1.3,0,2.5-0.8,2.9-2.2c0.1-0.4,0.2-0.8,0.2-1.1V119.4z"/>
</g>
<g>
	<path d="M1472.3,90.6c-0.1-2.3-0.3-5-0.2-7h-0.1c-0.6,1.9-1.2,3.9-2,6.1l-2.9,7.8h-1.6l-2.6-7.7c-0.8-2.3-1.4-4.4-1.9-6.3h0
		c0,2-0.2,4.7-0.3,7.2l-0.4,6.9h-2l1.1-16.2h2.7l2.8,7.8c0.7,2,1.2,3.8,1.6,5.4h0.1c0.4-1.6,1-3.4,1.7-5.4l2.9-7.8h2.7l1,16.2h-2
		L1472.3,90.6z"/>
	<path d="M1484.4,97.7l-0.2-1.5h-0.1c-0.6,0.9-1.9,1.7-3.6,1.7c-2.4,0-3.6-1.7-3.6-3.3c0-2.8,2.5-4.3,7-4.3V90c0-1-0.3-2.7-2.6-2.7
		c-1.1,0-2.2,0.3-3,0.9l-0.5-1.4c1-0.6,2.4-1,3.8-1c3.6,0,4.4,2.4,4.4,4.8v4.3c0,1,0,2,0.2,2.8H1484.4z M1484.1,91.7
		c-2.3,0-4.9,0.4-4.9,2.6c0,1.4,0.9,2,2,2c1.5,0,2.5-1,2.8-1.9c0.1-0.2,0.1-0.5,0.1-0.7V91.7z"/>
	<path d="M1497.8,97.2c-0.6,0.3-1.8,0.7-3.3,0.7c-3.5,0-5.8-2.4-5.8-5.9c0-3.6,2.4-6.2,6.2-6.2c1.2,0,2.4,0.3,2.9,0.6l-0.5,1.6
		c-0.5-0.3-1.3-0.6-2.4-0.6c-2.7,0-4.1,2-4.1,4.4c0,2.7,1.7,4.3,4,4.3c1.2,0,2-0.3,2.6-0.6L1497.8,97.2z"/>
	<path d="M1500.3,80.6h2.1v7.2h0c0.3-0.6,0.9-1.1,1.5-1.5c0.6-0.4,1.4-0.6,2.2-0.6c1.6,0,4.1,1,4.1,5v6.9h-2.1V91
		c0-1.9-0.7-3.5-2.7-3.5c-1.4,0-2.4,1-2.8,2.1c-0.1,0.3-0.1,0.6-0.1,1v7h-2.1V80.6z"/>
	<path d="M1516,82.8c0,0.7-0.5,1.3-1.3,1.3c-0.7,0-1.3-0.6-1.3-1.3c0-0.7,0.6-1.3,1.3-1.3C1515.5,81.5,1516,82,1516,82.8z
		 M1513.6,97.7V86h2.1v11.6H1513.6z"/>
	<path d="M1519.2,89.2c0-1.2,0-2.2-0.1-3.1h1.9l0.1,1.9h0c0.6-1.1,1.9-2.2,3.8-2.2c1.6,0,4.1,1,4.1,4.9v6.9h-2.1V91
		c0-1.9-0.7-3.4-2.7-3.4c-1.4,0-2.5,1-2.8,2.2c-0.1,0.3-0.1,0.6-0.1,1v7h-2.1V89.2z"/>
	<path d="M1533.7,92.2c0,2.9,1.9,4,4,4c1.5,0,2.4-0.3,3.2-0.6l0.4,1.5c-0.7,0.3-2,0.7-3.9,0.7c-3.6,0-5.7-2.4-5.7-5.9
		c0-3.5,2.1-6.3,5.4-6.3c3.8,0,4.8,3.3,4.8,5.5c0,0.4,0,0.8-0.1,1H1533.7z M1539.9,90.7c0-1.3-0.6-3.4-2.9-3.4c-2.1,0-3.1,2-3.2,3.4
		H1539.9z"/>
	<path d="M1464.7,118.2c0,5.6-3.4,8.5-7.5,8.5c-4.3,0-7.3-3.3-7.3-8.2c0-5.1,3.2-8.5,7.5-8.5C1461.9,110,1464.7,113.4,1464.7,118.2z
		 M1452.2,118.5c0,3.5,1.9,6.6,5.2,6.6c3.3,0,5.2-3,5.2-6.7c0-3.2-1.7-6.6-5.2-6.6C1453.9,111.7,1452.2,114.9,1452.2,118.5z"/>
	<path d="M1467.4,118.6c0-1.5,0-2.7-0.1-3.8h1.9l0.1,2h0c0.9-1.4,2.2-2.3,4.1-2.3c2.8,0,4.9,2.4,4.9,5.9c0,4.2-2.5,6.2-5.3,6.2
		c-1.5,0-2.9-0.7-3.6-1.8h0v6.3h-2.1V118.6z M1469.5,121.7c0,0.3,0,0.6,0.1,0.9c0.4,1.5,1.7,2.5,3.2,2.5c2.2,0,3.5-1.8,3.5-4.5
		c0-2.3-1.2-4.3-3.5-4.3c-1.4,0-2.8,1-3.2,2.6c-0.1,0.3-0.1,0.6-0.1,0.9V121.7z"/>
	<path d="M1482.2,121c0,2.9,1.9,4,4,4c1.5,0,2.4-0.3,3.2-0.6l0.4,1.5c-0.7,0.3-2,0.7-3.9,0.7c-3.6,0-5.7-2.4-5.7-5.9
		c0-3.5,2.1-6.3,5.4-6.3c3.8,0,4.8,3.3,4.8,5.5c0,0.4,0,0.8-0.1,1H1482.2z M1488.4,119.5c0-1.3-0.6-3.4-2.9-3.4
		c-2.1,0-3.1,2-3.2,3.4H1488.4z"/>
	<path d="M1493,118.5c0-1.4,0-2.5-0.1-3.6h1.8l0.1,2.3h0.1c0.5-1.6,1.8-2.5,3.2-2.5c0.2,0,0.4,0,0.6,0.1v2c-0.2,0-0.4-0.1-0.7-0.1
		c-1.5,0-2.5,1.1-2.8,2.7c0,0.3-0.1,0.6-0.1,1v6.2h-2.1V118.5z"/>
	<path d="M1507.2,126.5l-0.2-1.5h-0.1c-0.6,0.9-1.9,1.7-3.6,1.7c-2.4,0-3.6-1.7-3.6-3.3c0-2.8,2.5-4.3,7-4.3v-0.2
		c0-1-0.3-2.7-2.6-2.7c-1.1,0-2.2,0.3-3,0.9l-0.5-1.4c1-0.6,2.4-1,3.8-1c3.6,0,4.4,2.4,4.4,4.8v4.3c0,1,0,2,0.2,2.8H1507.2z
		 M1506.9,120.5c-2.3,0-4.9,0.4-4.9,2.6c0,1.4,0.9,2,2,2c1.5,0,2.5-1,2.8-1.9c0.1-0.2,0.1-0.5,0.1-0.7V120.5z"/>
	<path d="M1514.8,111.5v3.3h3v1.6h-3v6.3c0,1.4,0.4,2.3,1.6,2.3c0.6,0,1-0.1,1.2-0.1l0.1,1.6c-0.4,0.2-1.1,0.3-1.9,0.3
		c-1,0-1.8-0.3-2.3-0.9c-0.6-0.6-0.8-1.7-0.8-3v-6.3h-1.8v-1.6h1.8v-2.8L1514.8,111.5z"/>
	<path d="M1522.5,111.6c0,0.7-0.5,1.3-1.3,1.3c-0.7,0-1.3-0.6-1.3-1.3c0-0.7,0.6-1.3,1.3-1.3C1522,110.3,1522.5,110.8,1522.5,111.6z
		 M1520.2,126.5v-11.6h2.1v11.6H1520.2z"/>
	<path d="M1536.3,120.6c0,4.3-3,6.2-5.8,6.2c-3.1,0-5.6-2.3-5.6-6c0-3.9,2.5-6.2,5.8-6.2C1534.1,114.6,1536.3,117,1536.3,120.6z
		 M1527.1,120.7c0,2.5,1.5,4.5,3.5,4.5c2,0,3.5-1.9,3.5-4.5c0-2-1-4.5-3.5-4.5S1527.1,118.5,1527.1,120.7z"/>
	<path d="M1539,118c0-1.2,0-2.2-0.1-3.1h1.9l0.1,1.9h0c0.6-1.1,1.9-2.2,3.8-2.2c1.6,0,4.1,1,4.1,4.9v6.9h-2.1v-6.7
		c0-1.9-0.7-3.4-2.7-3.4c-1.4,0-2.5,1-2.8,2.2c-0.1,0.3-0.1,0.6-0.1,1v7h-2.1V118z"/>
</g>
</svg>
