<?xml version="1.0" encoding="utf-8"?>
<!-- Generator: Adobe Illustrator 22.0.0, SVG Export Plug-In . SVG Version: 6.00 Build 0)  -->
<svg version="1.1" id="Layer_1" xmlns="http://www.w3.org/2000/svg" xmlns:xlink="http://www.w3.org/1999/xlink" x="0px" y="0px"
	 viewBox="0 0 1920 144.2" style="enable-background:new 0 0 1920 144.2;" xml:space="preserve">
<style type="text/css">
	.st0{fill:#65A3AE;stroke:#65A3AE;stroke-width:3;stroke-miterlimit:10;}
	.st1{fill:#65A3AE;stroke:#65A3AE;stroke-width:3;stroke-miterlimit:10;stroke-dasharray:11.77,11.77;}
	.st2{fill:none;stroke:#65A3AE;stroke-width:3;stroke-miterlimit:10;}
</style>
<title>Recurso 11</title>
<g id="Capa_2">
	<g id="Capa_1-2">
		<line class="st0" x1="235.6" y1="53.4" x2="1920" y2="53.4"/>
		<line class="st0" x1="0" y1="53.4" x2="6" y2="53.4"/>
		<line class="st1" x1="17.8" y1="53.4" x2="223.7" y2="53.4"/>
		<line class="st0" x1="229.6" y1="53.4" x2="235.6" y2="53.4"/>
		<rect x="229.6" y="39" class="st0" width="28.7" height="28.7"/>
		<rect x="586.1" y="39" class="st0" width="28.7" height="28.7"/>
		<rect x="942.7" y="39" class="st0" width="28.7" height="28.7"/>
		<rect x="1299.2" y="39" class="st0" width="28.7" height="28.7"/>
		<rect x="1655.7" y="39" class="st0" width="28.7" height="28.7"/>
	</g>
</g>
<g>
	<path d="M242.6,11.1L242.6,11.1l-2.8,1.5l-0.4-1.6l3.4-1.8h1.8v15.6h-2V11.1z"/>
</g>
<g>
	<path d="M594.1,24.9v-1.3l1.7-1.6c4-3.8,5.8-5.8,5.8-8.2c0-1.6-0.8-3-3.1-3c-1.4,0-2.6,0.7-3.3,1.3l-0.7-1.5
		c1.1-0.9,2.6-1.6,4.4-1.6c3.4,0,4.8,2.3,4.8,4.5c0,2.9-2.1,5.2-5.4,8.4l-1.2,1.2v0h7v1.8H594.1z"/>
</g>
<g>
	<path d="M950.5,22.4c0.6,0.4,2,1,3.5,1c2.7,0,3.6-1.7,3.5-3c0-2.2-2-3.1-4-3.1h-1.2v-1.6h1.2c1.5,0,3.5-0.8,3.5-2.6
		c0-1.2-0.8-2.4-2.7-2.4c-1.2,0-2.4,0.6-3.1,1l-0.6-1.5c0.8-0.6,2.4-1.2,4.1-1.2c3.1,0,4.5,1.8,4.5,3.7c0,1.6-1,3-2.9,3.7v0
		c1.9,0.4,3.5,1.8,3.5,4c0,2.5-1.9,4.7-5.7,4.7c-1.8,0-3.3-0.6-4.1-1.1L950.5,22.4z"/>
</g>
<g>
	<path d="M1311.8,24.8v-4.2h-7.2v-1.4l7-10h2.3v9.7h2.2v1.7h-2.2v4.2H1311.8z M1311.8,18.9v-5.2c0-0.8,0-1.6,0.1-2.4h-0.1
		c-0.5,0.9-0.9,1.6-1.3,2.3l-3.8,5.3v0H1311.8z"/>
</g>
<g>
	<path d="M1673,10.8h-6l-0.6,4c0.4,0,0.7-0.1,1.3-0.1c1.2,0,2.4,0.3,3.4,0.8c1.2,0.7,2.2,2,2.2,4c0,3-2.4,5.3-5.8,5.3
		c-1.7,0-3.1-0.5-3.9-1l0.5-1.6c0.6,0.4,1.9,0.9,3.3,0.9c2,0,3.7-1.3,3.7-3.4c0-2-1.4-3.5-4.5-3.5c-0.9,0-1.6,0.1-2.2,0.2l1-7.5h7.5
		V10.8z"/>
</g>
<g>
	<path d="M200.5,87.1c1-0.2,2.3-0.3,4-0.3c2.1,0,3.6,0.5,4.5,1.3c0.9,0.8,1.4,1.9,1.4,3.4c0,1.5-0.4,2.6-1.2,3.5
		c-1.1,1.2-2.9,1.8-4.9,1.8c-0.6,0-1.2,0-1.7-0.1v6.5h-2.1V87.1z M202.5,94.9c0.5,0.1,1,0.2,1.7,0.2c2.5,0,4.1-1.2,4.1-3.5
		c0-2.1-1.5-3.2-3.8-3.2c-0.9,0-1.6,0.1-2,0.2V94.9z"/>
	<path d="M212.8,95.1c0-1.4,0-2.5-0.1-3.6h1.8l0.1,2.3h0.1c0.5-1.6,1.8-2.5,3.2-2.5c0.2,0,0.4,0,0.6,0.1v2c-0.2,0-0.4-0.1-0.7-0.1
		c-1.5,0-2.5,1.1-2.8,2.7c0,0.3-0.1,0.6-0.1,1v6.2h-2.1V95.1z"/>
	<path d="M221.5,97.7c0,2.9,1.9,4,4,4c1.5,0,2.4-0.3,3.2-0.6l0.4,1.5c-0.7,0.3-2,0.7-3.9,0.7c-3.6,0-5.7-2.4-5.7-5.9
		c0-3.5,2.1-6.3,5.4-6.3c3.8,0,4.8,3.3,4.8,5.5c0,0.4,0,0.8-0.1,1H221.5z M227.7,96.2c0-1.3-0.6-3.4-2.9-3.4c-2.1,0-3.1,2-3.2,3.4
		H227.7z"/>
	<path d="M232.4,86.1h2.1v17h-2.1V86.1z"/>
	<path d="M240.4,88.2c0,0.7-0.5,1.3-1.3,1.3c-0.7,0-1.3-0.6-1.3-1.3c0-0.7,0.6-1.3,1.3-1.3C239.9,86.9,240.4,87.5,240.4,88.2z
		 M238.1,103.1V91.5h2.1v11.6H238.1z"/>
	<path d="M243.7,94.7c0-1.2,0-2.2-0.1-3.1h1.8l0.1,1.9h0.1c0.6-1.1,1.7-2.1,3.6-2.1c1.6,0,2.8,1,3.3,2.3h0c0.4-0.6,0.8-1.2,1.3-1.5
		c0.7-0.5,1.5-0.8,2.6-0.8c1.5,0,3.8,1,3.8,5v6.8h-2.1v-6.6c0-2.2-0.8-3.6-2.5-3.6c-1.2,0-2.1,0.9-2.5,1.9c-0.1,0.3-0.2,0.7-0.2,1.1
		v7.2h-2.1v-7c0-1.8-0.8-3.2-2.4-3.2c-1.3,0-2.3,1.1-2.6,2.1c-0.1,0.3-0.2,0.7-0.2,1v7h-2.1V94.7z"/>
	<path d="M266,88.2c0,0.7-0.5,1.3-1.3,1.3c-0.7,0-1.3-0.6-1.3-1.3c0-0.7,0.6-1.3,1.3-1.3C265.5,86.9,266,87.5,266,88.2z
		 M263.7,103.1V91.5h2.1v11.6H263.7z"/>
	<path d="M269.3,94.7c0-1.2,0-2.2-0.1-3.1h1.9l0.1,1.9h0c0.6-1.1,1.9-2.2,3.8-2.2c1.6,0,4.1,1,4.1,4.9v6.9h-2.1v-6.7
		c0-1.9-0.7-3.4-2.7-3.4c-1.4,0-2.5,1-2.8,2.2c-0.1,0.3-0.1,0.6-0.1,1v7h-2.1V94.7z"/>
	<path d="M289.1,103.1l-0.2-1.5h-0.1c-0.6,0.9-1.9,1.7-3.6,1.7c-2.4,0-3.6-1.7-3.6-3.3c0-2.8,2.5-4.3,7-4.3v-0.2
		c0-1-0.3-2.7-2.6-2.7c-1.1,0-2.2,0.3-3,0.9l-0.5-1.4c1-0.6,2.4-1,3.8-1c3.6,0,4.4,2.4,4.4,4.8v4.3c0,1,0,2,0.2,2.8H289.1z
		 M288.7,97.2c-2.3,0-4.9,0.4-4.9,2.6c0,1.4,0.9,2,2,2c1.5,0,2.5-1,2.8-1.9c0.1-0.2,0.1-0.5,0.1-0.7V97.2z"/>
	<path d="M294.2,95.1c0-1.4,0-2.5-0.1-3.6h1.8l0.1,2.3h0.1c0.5-1.6,1.8-2.5,3.2-2.5c0.2,0,0.4,0,0.6,0.1v2c-0.2,0-0.4-0.1-0.7-0.1
		c-1.5,0-2.5,1.1-2.8,2.7c0,0.3-0.1,0.6-0.1,1v6.2h-2.1V95.1z"/>
	<path d="M303.4,91.5l2.5,6.9c0.3,0.8,0.6,1.7,0.7,2.4h0c0.2-0.7,0.5-1.6,0.7-2.4l2.3-6.8h2.2l-3.2,8.3c-1.5,4-2.5,6-4,7.3
		c-1,0.9-2.1,1.3-2.6,1.4l-0.5-1.8c0.5-0.2,1.2-0.5,1.8-1c0.6-0.5,1.3-1.3,1.8-2.4c0.1-0.2,0.2-0.4,0.2-0.5s0-0.3-0.1-0.6l-4.3-10.7
		H303.4z"/>
	<path d="M223.3,116c1.3-0.2,2.8-0.3,4.4-0.3c3,0,5.1,0.7,6.6,2c1.4,1.3,2.3,3.2,2.3,5.8c0,2.6-0.8,4.8-2.3,6.3
		c-1.5,1.5-4,2.3-7.2,2.3c-1.5,0-2.7-0.1-3.8-0.2V116z M225.4,130.3c0.5,0.1,1.3,0.1,2.1,0.1c4.5,0,6.9-2.5,6.9-6.9
		c0-3.8-2.1-6.2-6.6-6.2c-1.1,0-1.9,0.1-2.4,0.2V130.3z"/>
	<path d="M240.5,126.5c0,2.9,1.9,4,4,4c1.5,0,2.4-0.3,3.2-0.6l0.4,1.5c-0.7,0.3-2,0.7-3.9,0.7c-3.6,0-5.7-2.4-5.7-5.9
		c0-3.5,2.1-6.3,5.4-6.3c3.8,0,4.8,3.3,4.8,5.5c0,0.4,0,0.8-0.1,1H240.5z M246.7,125c0-1.3-0.6-3.4-2.9-3.4c-2.1,0-3.1,2-3.2,3.4
		H246.7z"/>
	<path d="M251,129.8c0.6,0.4,1.7,0.8,2.8,0.8c1.5,0,2.3-0.8,2.3-1.7c0-1-0.6-1.6-2.2-2.1c-2.1-0.7-3.1-1.9-3.1-3.3
		c0-1.9,1.5-3.4,4-3.4c1.2,0,2.2,0.3,2.9,0.7l-0.5,1.5c-0.5-0.3-1.3-0.7-2.4-0.7c-1.2,0-1.9,0.7-1.9,1.6c0,1,0.7,1.4,2.2,2
		c2,0.8,3,1.8,3,3.5c0,2-1.6,3.5-4.3,3.5c-1.3,0-2.4-0.3-3.3-0.8L251,129.8z"/>
	<path d="M263.2,117c0,0.7-0.5,1.3-1.3,1.3c-0.7,0-1.3-0.6-1.3-1.3c0-0.7,0.6-1.3,1.3-1.3C262.7,115.7,263.2,116.3,263.2,117z
		 M260.8,131.9v-11.6h2.1v11.6H260.8z"/>
	<path d="M276.5,120.3c0,0.8-0.1,1.8-0.1,3.2v6.7c0,2.7-0.5,4.3-1.7,5.3c-1.1,1.1-2.8,1.4-4.2,1.4c-1.4,0-2.9-0.3-3.9-1l0.5-1.6
		c0.8,0.5,2,0.9,3.4,0.9c2.2,0,3.7-1.1,3.7-4.1v-1.3h0c-0.6,1.1-1.9,1.9-3.7,1.9c-2.9,0-4.9-2.4-4.9-5.7c0-3.9,2.6-6.2,5.2-6.2
		c2,0,3.1,1.1,3.6,2h0l0.1-1.8H276.5z M274.3,124.9c0-0.4,0-0.7-0.1-1c-0.4-1.2-1.4-2.2-3-2.2c-2,0-3.5,1.7-3.5,4.4
		c0,2.3,1.2,4.2,3.4,4.2c1.3,0,2.5-0.8,2.9-2.2c0.1-0.4,0.2-0.8,0.2-1.1V124.9z"/>
	<path d="M279.7,123.5c0-1.2,0-2.2-0.1-3.1h1.9l0.1,1.9h0c0.6-1.1,1.9-2.2,3.8-2.2c1.6,0,4.1,1,4.1,4.9v6.9h-2.1v-6.7
		c0-1.9-0.7-3.4-2.7-3.4c-1.4,0-2.5,1-2.8,2.2c-0.1,0.3-0.1,0.6-0.1,1v7h-2.1V123.5z"/>
</g>
<g>
	<path d="M553.7,90.2c1.3-0.2,2.8-0.3,4.4-0.3c3,0,5.1,0.7,6.6,2c1.4,1.3,2.3,3.2,2.3,5.8c0,2.6-0.8,4.8-2.3,6.3
		c-1.5,1.5-4,2.3-7.2,2.3c-1.5,0-2.7-0.1-3.8-0.2V90.2z M555.8,104.5c0.5,0.1,1.3,0.1,2.1,0.1c4.5,0,6.9-2.5,6.9-6.9
		c0-3.8-2.1-6.2-6.6-6.2c-1.1,0-1.9,0.1-2.4,0.2V104.5z"/>
	<path d="M570.9,100.7c0,2.9,1.9,4,4,4c1.5,0,2.4-0.3,3.2-0.6l0.4,1.5c-0.7,0.3-2,0.7-3.9,0.7c-3.6,0-5.7-2.4-5.7-5.9
		c0-3.5,2.1-6.3,5.4-6.3c3.8,0,4.8,3.3,4.8,5.5c0,0.4,0,0.8-0.1,1H570.9z M577.1,99.2c0-1.3-0.6-3.4-2.9-3.4c-2.1,0-3.1,2-3.2,3.4
		H577.1z"/>
	<path d="M584.3,91.2v3.3h3v1.6h-3v6.3c0,1.4,0.4,2.3,1.6,2.3c0.6,0,1-0.1,1.2-0.1l0.1,1.6c-0.4,0.2-1.1,0.3-1.9,0.3
		c-1,0-1.8-0.3-2.3-0.9c-0.6-0.6-0.8-1.7-0.8-3v-6.3h-1.8v-1.6h1.8v-2.8L584.3,91.2z"/>
	<path d="M596.1,106.1l-0.2-1.5h-0.1c-0.6,0.9-1.9,1.7-3.6,1.7c-2.4,0-3.6-1.7-3.6-3.3c0-2.8,2.5-4.3,7-4.3v-0.2
		c0-1-0.3-2.7-2.6-2.7c-1.1,0-2.2,0.3-3,0.9l-0.5-1.4c1-0.6,2.4-1,3.8-1c3.6,0,4.4,2.4,4.4,4.8v4.3c0,1,0,2,0.2,2.8H596.1z
		 M595.8,100.2c-2.3,0-4.9,0.4-4.9,2.6c0,1.4,0.9,2,2,2c1.5,0,2.5-1,2.8-1.9c0.1-0.2,0.1-0.5,0.1-0.7V100.2z"/>
	<path d="M603.6,91.2c0,0.7-0.5,1.3-1.3,1.3c-0.7,0-1.3-0.6-1.3-1.3c0-0.7,0.6-1.3,1.3-1.3C603.1,89.9,603.6,90.5,603.6,91.2z
		 M601.2,106.1V94.5h2.1v11.6H601.2z"/>
	<path d="M606.8,89.1h2.1v17h-2.1V89.1z"/>
	<path d="M613.7,100.7c0,2.9,1.9,4,4,4c1.5,0,2.4-0.3,3.2-0.6l0.4,1.5c-0.7,0.3-2,0.7-3.9,0.7c-3.6,0-5.7-2.4-5.7-5.9
		c0-3.5,2.1-6.3,5.4-6.3c3.8,0,4.8,3.3,4.8,5.5c0,0.4,0,0.8-0.1,1H613.7z M619.9,99.2c0-1.3-0.6-3.4-2.9-3.4c-2.1,0-3.1,2-3.2,3.4
		H619.9z"/>
	<path d="M634.6,89.1v14c0,1,0,2.2,0.1,3h-1.9l-0.1-2h0c-0.6,1.3-2.1,2.3-4,2.3c-2.8,0-5-2.4-5-5.9c0-3.9,2.4-6.2,5.2-6.2
		c1.8,0,3,0.8,3.5,1.8h0v-6.9H634.6z M632.4,99.2c0-0.3,0-0.6-0.1-0.9c-0.3-1.3-1.5-2.4-3-2.4c-2.2,0-3.5,1.9-3.5,4.5
		c0,2.4,1.2,4.3,3.4,4.3c1.4,0,2.7-0.9,3.1-2.5c0.1-0.3,0.1-0.6,0.1-0.9V99.2z"/>
	<path d="M561,119c1.3-0.2,2.8-0.3,4.4-0.3c3,0,5.1,0.7,6.6,2c1.4,1.3,2.3,3.2,2.3,5.8c0,2.6-0.8,4.8-2.3,6.3
		c-1.5,1.5-4,2.3-7.2,2.3c-1.5,0-2.7-0.1-3.8-0.2V119z M563.1,133.3c0.5,0.1,1.3,0.1,2.1,0.1c4.5,0,6.9-2.5,6.9-6.9
		c0-3.8-2.1-6.2-6.6-6.2c-1.1,0-1.9,0.1-2.4,0.2V133.3z"/>
	<path d="M578.2,129.5c0,2.9,1.9,4,4,4c1.5,0,2.4-0.3,3.2-0.6l0.4,1.5c-0.7,0.3-2,0.7-3.9,0.7c-3.6,0-5.7-2.4-5.7-5.9
		c0-3.5,2.1-6.3,5.4-6.3c3.8,0,4.8,3.3,4.8,5.5c0,0.4,0,0.8-0.1,1H578.2z M584.4,128c0-1.3-0.6-3.4-2.9-3.4c-2.1,0-3.1,2-3.2,3.4
		H584.4z"/>
	<path d="M588.7,132.8c0.6,0.4,1.7,0.8,2.8,0.8c1.5,0,2.3-0.8,2.3-1.7c0-1-0.6-1.6-2.2-2.1c-2.1-0.7-3.1-1.9-3.1-3.3
		c0-1.9,1.5-3.4,4-3.4c1.2,0,2.2,0.3,2.9,0.7l-0.5,1.5c-0.5-0.3-1.3-0.7-2.4-0.7c-1.2,0-1.9,0.7-1.9,1.6c0,1,0.7,1.4,2.2,2
		c2,0.8,3,1.8,3,3.5c0,2-1.6,3.5-4.3,3.5c-1.3,0-2.4-0.3-3.3-0.8L588.7,132.8z"/>
	<path d="M600.9,120c0,0.7-0.5,1.3-1.3,1.3c-0.7,0-1.3-0.6-1.3-1.3c0-0.7,0.6-1.3,1.3-1.3C600.4,118.7,600.9,119.3,600.9,120z
		 M598.5,134.9v-11.6h2.1v11.6H598.5z"/>
	<path d="M614.2,123.3c0,0.8-0.1,1.8-0.1,3.2v6.7c0,2.7-0.5,4.3-1.7,5.3c-1.1,1.1-2.8,1.4-4.2,1.4c-1.4,0-2.9-0.3-3.9-1l0.5-1.6
		c0.8,0.5,2,0.9,3.4,0.9c2.2,0,3.7-1.1,3.7-4.1v-1.3h0c-0.6,1.1-1.9,1.9-3.7,1.9c-2.9,0-4.9-2.4-4.9-5.7c0-3.9,2.6-6.2,5.2-6.2
		c2,0,3.1,1.1,3.6,2h0l0.1-1.8H614.2z M612,127.9c0-0.4,0-0.7-0.1-1c-0.4-1.2-1.4-2.2-3-2.2c-2,0-3.5,1.7-3.5,4.4
		c0,2.3,1.2,4.2,3.4,4.2c1.3,0,2.5-0.8,2.9-2.2c0.1-0.4,0.2-0.8,0.2-1.1V127.9z"/>
	<path d="M617.4,126.5c0-1.2,0-2.2-0.1-3.1h1.9l0.1,1.9h0c0.6-1.1,1.9-2.2,3.8-2.2c1.6,0,4.1,1,4.1,4.9v6.9h-2.1v-6.7
		c0-1.9-0.7-3.4-2.7-3.4c-1.4,0-2.5,1-2.8,2.2c-0.1,0.3-0.1,0.6-0.1,1v7h-2.1V126.5z"/>
</g>
<g>
	<path d="M904.7,102.6c-0.8,0.4-2.3,0.8-4.3,0.8c-4.6,0-8-2.9-8-8.2c0-5.1,3.4-8.5,8.4-8.5c2,0,3.3,0.4,3.8,0.7l-0.5,1.7
		c-0.8-0.4-1.9-0.7-3.3-0.7c-3.8,0-6.3,2.4-6.3,6.7c0,4,2.3,6.5,6.2,6.5c1.3,0,2.6-0.3,3.4-0.7L904.7,102.6z"/>
	<path d="M917.5,97.2c0,4.3-3,6.2-5.8,6.2c-3.1,0-5.6-2.3-5.6-6c0-3.9,2.5-6.2,5.8-6.2C915.3,91.2,917.5,93.7,917.5,97.2z
		 M908.3,97.3c0,2.5,1.5,4.5,3.5,4.5c2,0,3.5-1.9,3.5-4.5c0-2-1-4.5-3.5-4.5S908.3,95.1,908.3,97.3z"/>
	<path d="M920.2,94.7c0-1.2,0-2.2-0.1-3.1h1.8l0.1,1.9h0.1c0.6-1.1,1.7-2.1,3.6-2.1c1.6,0,2.8,1,3.3,2.3h0c0.4-0.6,0.8-1.2,1.3-1.5
		c0.7-0.5,1.5-0.8,2.6-0.8c1.5,0,3.8,1,3.8,5v6.8h-2.1v-6.6c0-2.2-0.8-3.6-2.5-3.6c-1.2,0-2.1,0.9-2.5,1.9c-0.1,0.3-0.2,0.7-0.2,1.1
		v7.2h-2.1v-7c0-1.8-0.8-3.2-2.4-3.2c-1.3,0-2.3,1.1-2.6,2.1c-0.1,0.3-0.2,0.7-0.2,1v7h-2.1V94.7z"/>
	<path d="M942.6,88.2c0,0.7-0.5,1.3-1.3,1.3c-0.7,0-1.3-0.6-1.3-1.3c0-0.7,0.6-1.3,1.3-1.3C942.1,86.9,942.6,87.5,942.6,88.2z
		 M940.2,103.1V91.5h2.1v11.6H940.2z"/>
	<path d="M945.5,101c0.6,0.4,1.7,0.8,2.8,0.8c1.5,0,2.3-0.8,2.3-1.7c0-1-0.6-1.6-2.2-2.1c-2.1-0.7-3.1-1.9-3.1-3.3
		c0-1.9,1.5-3.4,4-3.4c1.2,0,2.2,0.3,2.9,0.7l-0.5,1.5c-0.5-0.3-1.3-0.7-2.4-0.7c-1.2,0-1.9,0.7-1.9,1.6c0,1,0.7,1.4,2.2,2
		c2,0.8,3,1.8,3,3.5c0,2-1.6,3.5-4.3,3.5c-1.3,0-2.4-0.3-3.3-0.8L945.5,101z"/>
	<path d="M957.7,88.2c0,0.7-0.5,1.3-1.3,1.3c-0.7,0-1.3-0.6-1.3-1.3c0-0.7,0.6-1.3,1.3-1.3C957.2,86.9,957.7,87.5,957.7,88.2z
		 M955.3,103.1V91.5h2.1v11.6H955.3z"/>
	<path d="M971.5,97.2c0,4.3-3,6.2-5.8,6.2c-3.1,0-5.6-2.3-5.6-6c0-3.9,2.5-6.2,5.8-6.2C969.2,91.2,971.5,93.7,971.5,97.2z
		 M962.2,97.3c0,2.5,1.5,4.5,3.5,4.5c2,0,3.5-1.9,3.5-4.5c0-2-1-4.5-3.5-4.5S962.2,95.1,962.2,97.3z"/>
	<path d="M974.1,94.7c0-1.2,0-2.2-0.1-3.1h1.9l0.1,1.9h0c0.6-1.1,1.9-2.2,3.8-2.2c1.6,0,4.1,1,4.1,4.9v6.9h-2.1v-6.7
		c0-1.9-0.7-3.4-2.7-3.4c-1.4,0-2.5,1-2.8,2.2c-0.1,0.3-0.1,0.6-0.1,1v7h-2.1V94.7z"/>
	<path d="M989.8,88.2c0,0.7-0.5,1.3-1.3,1.3c-0.7,0-1.3-0.6-1.3-1.3c0-0.7,0.6-1.3,1.3-1.3C989.3,86.9,989.8,87.5,989.8,88.2z
		 M987.4,103.1V91.5h2.1v11.6H987.4z"/>
	<path d="M993.1,94.7c0-1.2,0-2.2-0.1-3.1h1.9l0.1,1.9h0c0.6-1.1,1.9-2.2,3.8-2.2c1.6,0,4.1,1,4.1,4.9v6.9h-2.1v-6.7
		c0-1.9-0.7-3.4-2.7-3.4c-1.4,0-2.5,1-2.8,2.2c-0.1,0.3-0.1,0.6-0.1,1v7h-2.1V94.7z"/>
	<path d="M1016.4,91.5c0,0.8-0.1,1.8-0.1,3.2v6.7c0,2.7-0.5,4.3-1.7,5.3c-1.1,1.1-2.8,1.4-4.2,1.4c-1.4,0-2.9-0.3-3.9-1l0.5-1.6
		c0.8,0.5,2,0.9,3.4,0.9c2.2,0,3.7-1.1,3.7-4.1v-1.3h0c-0.6,1.1-1.9,1.9-3.7,1.9c-2.9,0-4.9-2.4-4.9-5.7c0-3.9,2.6-6.2,5.2-6.2
		c2,0,3.1,1.1,3.6,2h0l0.1-1.8H1016.4z M1014.2,96.1c0-0.4,0-0.7-0.1-1c-0.4-1.2-1.4-2.2-3-2.2c-2,0-3.5,1.7-3.5,4.4
		c0,2.3,1.2,4.2,3.4,4.2c1.3,0,2.5-0.8,2.9-2.2c0.1-0.4,0.2-0.8,0.2-1.1V96.1z"/>
</g>
<g>
	<path d="M1286.5,97.9c0,5.6-3.4,8.5-7.5,8.5c-4.3,0-7.3-3.3-7.3-8.2c0-5.1,3.2-8.5,7.5-8.5C1283.6,89.7,1286.5,93.1,1286.5,97.9z
		 M1273.9,98.1c0,3.5,1.9,6.6,5.2,6.6c3.3,0,5.2-3,5.2-6.7c0-3.2-1.7-6.6-5.2-6.6C1275.7,91.4,1273.9,94.6,1273.9,98.1z"/>
	<path d="M1289.1,98.3c0-1.5,0-2.7-0.1-3.8h1.9l0.1,2h0c0.9-1.4,2.2-2.3,4.1-2.3c2.8,0,4.9,2.4,4.9,5.9c0,4.2-2.5,6.2-5.3,6.2
		c-1.5,0-2.9-0.7-3.6-1.8h0v6.3h-2.1V98.3z M1291.2,101.4c0,0.3,0,0.6,0.1,0.9c0.4,1.5,1.7,2.5,3.2,2.5c2.2,0,3.5-1.8,3.5-4.5
		c0-2.3-1.2-4.3-3.5-4.3c-1.4,0-2.8,1-3.2,2.6c-0.1,0.3-0.1,0.6-0.1,0.9V101.4z"/>
	<path d="M1304,100.7c0,2.9,1.9,4,4,4c1.5,0,2.4-0.3,3.2-0.6l0.4,1.5c-0.7,0.3-2,0.7-3.9,0.7c-3.6,0-5.7-2.4-5.7-5.9
		c0-3.5,2.1-6.3,5.4-6.3c3.8,0,4.8,3.3,4.8,5.5c0,0.4,0,0.8-0.1,1H1304z M1310.2,99.2c0-1.3-0.6-3.4-2.9-3.4c-2.1,0-3.1,2-3.2,3.4
		H1310.2z"/>
	<path d="M1314.8,98.1c0-1.4,0-2.5-0.1-3.6h1.8l0.1,2.3h0.1c0.5-1.6,1.8-2.5,3.2-2.5c0.2,0,0.4,0,0.6,0.1v2c-0.2,0-0.4-0.1-0.7-0.1
		c-1.5,0-2.5,1.1-2.8,2.7c0,0.3-0.1,0.6-0.1,1v6.2h-2.1V98.1z"/>
	<path d="M1329,106.1l-0.2-1.5h-0.1c-0.6,0.9-1.9,1.7-3.6,1.7c-2.4,0-3.6-1.7-3.6-3.3c0-2.8,2.5-4.3,7-4.3v-0.2c0-1-0.3-2.7-2.6-2.7
		c-1.1,0-2.2,0.3-3,0.9l-0.5-1.4c1-0.6,2.4-1,3.8-1c3.6,0,4.4,2.4,4.4,4.8v4.3c0,1,0,2,0.2,2.8H1329z M1328.7,100.2
		c-2.3,0-4.9,0.4-4.9,2.6c0,1.4,0.9,2,2,2c1.5,0,2.5-1,2.8-1.9c0.1-0.2,0.1-0.5,0.1-0.7V100.2z"/>
	<path d="M1336.6,91.2v3.3h3v1.6h-3v6.3c0,1.4,0.4,2.3,1.6,2.3c0.6,0,1-0.1,1.2-0.1l0.1,1.6c-0.4,0.2-1.1,0.3-1.9,0.3
		c-1,0-1.8-0.3-2.3-0.9c-0.6-0.6-0.8-1.7-0.8-3v-6.3h-1.8v-1.6h1.8v-2.8L1336.6,91.2z"/>
	<path d="M1352.3,100.2c0,4.3-3,6.2-5.8,6.2c-3.1,0-5.6-2.3-5.6-6c0-3.9,2.5-6.2,5.8-6.2C1350.1,94.2,1352.3,96.7,1352.3,100.2z
		 M1343.1,100.3c0,2.5,1.5,4.5,3.5,4.5c2,0,3.5-1.9,3.5-4.5c0-2-1-4.5-3.5-4.5S1343.1,98.1,1343.1,100.3z"/>
	<path d="M1355,98.1c0-1.4,0-2.5-0.1-3.6h1.8l0.1,2.3h0.1c0.5-1.6,1.8-2.5,3.2-2.5c0.2,0,0.4,0,0.6,0.1v2c-0.2,0-0.4-0.1-0.7-0.1
		c-1.5,0-2.5,1.1-2.8,2.7c0,0.3-0.1,0.6-0.1,1v6.2h-2.1V98.1z"/>
	<path d="M1280.1,120.5h-4.9v-1.8h12v1.8h-4.9v14.4h-2.1V120.5z"/>
	<path d="M1287.8,126.9c0-1.4,0-2.5-0.1-3.6h1.8l0.1,2.3h0.1c0.5-1.6,1.8-2.5,3.2-2.5c0.2,0,0.4,0,0.6,0.1v2c-0.2,0-0.4-0.1-0.7-0.1
		c-1.5,0-2.5,1.1-2.8,2.7c0,0.3-0.1,0.6-0.1,1v6.2h-2.1V126.9z"/>
	<path d="M1302,134.9l-0.2-1.5h-0.1c-0.6,0.9-1.9,1.7-3.6,1.7c-2.4,0-3.6-1.7-3.6-3.3c0-2.8,2.5-4.3,7-4.3v-0.2c0-1-0.3-2.7-2.6-2.7
		c-1.1,0-2.2,0.3-3,0.9l-0.5-1.4c1-0.6,2.4-1,3.8-1c3.6,0,4.4,2.4,4.4,4.8v4.3c0,1,0,2,0.2,2.8H1302z M1301.7,129
		c-2.3,0-4.9,0.4-4.9,2.6c0,1.4,0.9,2,2,2c1.5,0,2.5-1,2.8-1.9c0.1-0.2,0.1-0.5,0.1-0.7V129z"/>
	<path d="M1309.5,120c0,0.7-0.5,1.3-1.3,1.3c-0.7,0-1.3-0.6-1.3-1.3c0-0.7,0.6-1.3,1.3-1.3C1309,118.7,1309.5,119.3,1309.5,120z
		 M1307.1,134.9v-11.6h2.1v11.6H1307.1z"/>
	<path d="M1312.8,126.5c0-1.2,0-2.2-0.1-3.1h1.9l0.1,1.9h0c0.6-1.1,1.9-2.2,3.8-2.2c1.6,0,4.1,1,4.1,4.9v6.9h-2.1v-6.7
		c0-1.9-0.7-3.4-2.7-3.4c-1.4,0-2.5,1-2.8,2.2c-0.1,0.3-0.1,0.6-0.1,1v7h-2.1V126.5z"/>
	<path d="M1328.4,120c0,0.7-0.5,1.3-1.3,1.3c-0.7,0-1.3-0.6-1.3-1.3c0-0.7,0.6-1.3,1.3-1.3C1327.9,118.7,1328.4,119.3,1328.4,120z
		 M1326.1,134.9v-11.6h2.1v11.6H1326.1z"/>
	<path d="M1331.7,126.5c0-1.2,0-2.2-0.1-3.1h1.9l0.1,1.9h0c0.6-1.1,1.9-2.2,3.8-2.2c1.6,0,4.1,1,4.1,4.9v6.9h-2.1v-6.7
		c0-1.9-0.7-3.4-2.7-3.4c-1.4,0-2.5,1-2.8,2.2c-0.1,0.3-0.1,0.6-0.1,1v7h-2.1V126.5z"/>
	<path d="M1355,123.3c0,0.8-0.1,1.8-0.1,3.2v6.7c0,2.7-0.5,4.3-1.7,5.3c-1.1,1.1-2.8,1.4-4.2,1.4c-1.4,0-2.9-0.3-3.9-1l0.5-1.6
		c0.8,0.5,2,0.9,3.4,0.9c2.2,0,3.7-1.1,3.7-4.1v-1.3h0c-0.6,1.1-1.9,1.9-3.7,1.9c-2.9,0-4.9-2.4-4.9-5.7c0-3.9,2.6-6.2,5.2-6.2
		c2,0,3.1,1.1,3.6,2h0l0.1-1.8H1355z M1352.8,127.9c0-0.4,0-0.7-0.1-1c-0.4-1.2-1.4-2.2-3-2.2c-2,0-3.5,1.7-3.5,4.4
		c0,2.3,1.2,4.2,3.4,4.2c1.3,0,2.5-0.8,2.9-2.2c0.1-0.4,0.2-0.8,0.2-1.1V127.9z"/>
</g>
<g>
	<path d="M1633.1,87.2c1.1-0.2,2.6-0.3,4-0.3c2.2,0,3.7,0.4,4.7,1.3c0.8,0.7,1.3,1.8,1.3,3.1c0,2.1-1.3,3.6-3,4.1v0.1
		c1.2,0.4,2,1.6,2.4,3.3c0.5,2.3,0.9,3.8,1.2,4.4h-2.2c-0.3-0.5-0.6-1.8-1.1-3.9c-0.5-2.2-1.3-3.1-3.2-3.1h-2v7h-2.1V87.2z
		 M1635.2,94.5h2.1c2.2,0,3.6-1.2,3.6-3.1c0-2.1-1.5-3-3.7-3c-1,0-1.7,0.1-2.1,0.2V94.5z"/>
	<path d="M1647.3,97.7c0,2.9,1.9,4,4,4c1.5,0,2.4-0.3,3.2-0.6l0.4,1.5c-0.7,0.3-2,0.7-3.9,0.7c-3.6,0-5.7-2.4-5.7-5.9
		c0-3.5,2.1-6.3,5.4-6.3c3.8,0,4.8,3.3,4.8,5.5c0,0.4,0,0.8-0.1,1H1647.3z M1653.5,96.2c0-1.3-0.6-3.4-2.9-3.4c-2.1,0-3.1,2-3.2,3.4
		H1653.5z"/>
	<path d="M1660.7,88.2v3.3h3v1.6h-3v6.3c0,1.4,0.4,2.3,1.6,2.3c0.6,0,1-0.1,1.2-0.1l0.1,1.6c-0.4,0.2-1.1,0.3-1.9,0.3
		c-1,0-1.8-0.3-2.3-0.9c-0.6-0.6-0.8-1.7-0.8-3v-6.3h-1.8v-1.6h1.8v-2.8L1660.7,88.2z"/>
	<path d="M1666,95.1c0-1.4,0-2.5-0.1-3.6h1.8l0.1,2.3h0.1c0.5-1.6,1.8-2.5,3.2-2.5c0.2,0,0.4,0,0.6,0.1v2c-0.2,0-0.4-0.1-0.7-0.1
		c-1.5,0-2.5,1.1-2.8,2.7c0,0.3-0.1,0.6-0.1,1v6.2h-2.1V95.1z"/>
	<path d="M1684.2,97.2c0,4.3-3,6.2-5.8,6.2c-3.1,0-5.6-2.3-5.6-6c0-3.9,2.5-6.2,5.8-6.2C1681.9,91.2,1684.2,93.7,1684.2,97.2z
		 M1675,97.3c0,2.5,1.5,4.5,3.5,4.5c2,0,3.5-1.9,3.5-4.5c0-2-1-4.5-3.5-4.5S1675,95.1,1675,97.3z"/>
	<path d="M1687,103.1v-10h-1.6v-1.6h1.6v-0.6c0-3.1,1.8-5.1,5.1-5.1c1.1,0,2.4,0.3,3,0.8l-0.6,1.6c-0.5-0.4-1.4-0.7-2.4-0.7
		c-2.2,0-2.9,1.6-2.9,3.4v0.6h6.7v11.6h-2.1v-10h-4.7v10H1687z"/>
	<path d="M1701.9,88.2v3.3h3v1.6h-3v6.3c0,1.4,0.4,2.3,1.6,2.3c0.6,0,1-0.1,1.2-0.1l0.1,1.6c-0.4,0.2-1.1,0.3-1.9,0.3
		c-1,0-1.8-0.3-2.3-0.9c-0.6-0.6-0.8-1.7-0.8-3v-6.3h-1.8v-1.6h1.8v-2.8L1701.9,88.2z"/>
</g>
<polyline class="st2" points="413.6,35.2 431.8,53.4 413.6,71.5 "/>
<polyline class="st2" points="773.6,34.3 791.8,52.4 773.6,70.6 "/>
<polyline class="st2" points="1104.8,35.2 1122.9,53.4 1104.8,71.5 "/>
<polyline class="st2" points="1482.5,35.2 1500.7,53.4 1482.5,71.5 "/>
</svg>
