<?xml version="1.0" encoding="utf-8"?>
<!-- Generator: Adobe Illustrator 22.0.0, SVG Export Plug-In . SVG Version: 6.00 Build 0)  -->
<svg version="1.1" id="Capa_1" xmlns="http://www.w3.org/2000/svg" xmlns:xlink="http://www.w3.org/1999/xlink" x="0px" y="0px"
	 viewBox="0 0 512 512" style="enable-background:new 0 0 512 512;" xml:space="preserve">
<style type="text/css">
	.st0{fill:#FFFFFF;}
</style>
<g id="XMLID_1080_">
	<path id="XMLID_1081_" class="st0" d="M88.6,98.5c0-8.2-6.6-14.8-14.8-14.8S59,90.3,59,98.5s6.6,14.8,14.8,14.8
		S88.6,106.6,88.6,98.5z"/>
	<path id="XMLID_1082_" class="st0" d="M241.2,265.8c0,8.2,6.6,14.8,14.8,14.8c8.2,0,14.8-6.6,14.8-14.8S264.2,251,256,251
		C247.8,251.1,241.2,257.7,241.2,265.8z"/>
	<path id="XMLID_1083_" class="st0" d="M438.2,113.2c8.2,0,14.8-6.6,14.8-14.8s-6.6-14.8-14.8-14.8s-14.8,6.6-14.8,14.8
		S430,113.2,438.2,113.2z"/>
	<path id="XMLID_1084_" class="st0" d="M482.5,216.7C482.5,216.7,482.5,216.6,482.5,216.7v-59.2c17.9-13.5,29.5-34.9,29.5-59
		c0-40.7-33.1-73.8-73.8-73.8c-19.3,0-37,7.5-50.1,19.7H124c-13.2-12.2-30.8-19.7-50.1-19.7C33.1,24.6,0,57.7,0,98.5
		s33.1,73.8,73.8,73.8c0.7,0,1.4,0,2.1-0.1l107.5,107.5c1.9,10.1,5.9,19.4,11.5,27.6l-12,80l-36.5,41c-2.4,2.7-3.7,6.2-3.7,9.8v19.7
		h-24.6c-8.2,0-14.8,6.6-14.8,14.8s6.6,14.8,14.8,14.8h275.7c8.2,0,14.8-6.6,14.8-14.8s-6.6-14.8-14.8-14.8h-24.6v-19.7
		c0-3.6-1.3-7.1-3.7-9.8l-36.5-41l-12-80c8.1-11.8,12.8-26.1,12.8-41.5c0-40.7-33.1-73.8-73.8-73.8c-2.3,0-4.5,0.1-6.8,0.3
		l-39.7-39.7H388c1.9,1.7,3.8,3.4,5.8,4.9v59.1c0,0,0,0,0,0.1L368,246.3c-2.4,2.7-3.7,6.1-3.7,9.7v39.4c0,8.2,6.6,14.8,14.8,14.8
		c8.2,0,14.8-6.6,14.8-14.8v-33.8l26.4-30.2h35.8l26.4,30.2v33.8c0,8.2,6.6,14.8,14.8,14.8s14.8-6.6,14.8-14.8V256
		c0-3.6-1.3-7-3.7-9.7L482.5,216.7z M482.5,98.5c0,16.5-9.1,31-22.6,38.6c-10.4,5.8-22.9,7.3-34.3,3.9c-18-5.4-30.8-21.9-31.7-40.7
		c-0.3-7.2,1.2-14.5,4.4-21.1c7.2-14.8,22.4-25,39.9-25C462.6,54.2,482.5,74,482.5,98.5z M29.5,98.5c0-24.4,19.9-44.3,44.3-44.3
		c16,0,30,8.5,37.8,21.2c8,13.1,8.6,29.8,1.5,43.4c-1.9,3.7-4.4,7.2-7.3,10.2c-8.3,8.7-20,13.7-32,13.7
		C49.4,142.8,29.5,122.9,29.5,98.5z M241.4,338.2c9.8,2,19.9,1.9,29.7-0.1c6.9-1.4,13.5-3.8,19.7-7.1l7.2,48h-83.9l7.2-48
		c6.2,3.3,12.8,5.7,19.7,7.1C241.1,338.2,241.2,338.2,241.4,338.2z M339.7,457.8H172.3v-14.1l31.2-35.2h104.9l31.2,35.2v14.1H339.7z
		 M300.3,265.8c0,18.3-11.1,34-26.9,40.7c-11,4.7-23.8,4.7-34.8,0c-14.3-6.1-24.7-19.5-26.6-35.5c-1.7-11.9,2.5-24.6,10.2-33.7
		c2.2-2.6,4.7-4.9,7.4-7c7.4-5.5,16.5-8.8,26.5-8.8C280.4,221.5,300.3,241.4,300.3,265.8z M217.7,202.7c-3.6,2.2-7.1,4.8-10.3,7.6
		c-9.4,8.2-16.7,18.7-21,30.7l-77.5-77.5c4.6-2.5,9-5.5,13-9c8.7-7.5,15.6-16.9,20.1-27.6L217.7,202.7
		C217.8,202.7,217.8,202.7,217.7,202.7z M180,123.1l-32.7-32.7c-0.6-5.7-1.9-11.2-3.8-16.5h225.1c-4.4,12.3-5.3,25.7-2.9,38.5
		c0.7,3.6,1.7,7.2,2.9,10.7C368.6,123.1,180,123.1,180,123.1z M438.2,172.3c5.1,0,10-0.5,14.8-1.5v31h-29.5v-31
		C428.2,171.8,433.1,172.3,438.2,172.3z"/>
</g>
</svg>
