<?xml version="1.0" encoding="utf-8"?>
<!-- Generator: Adobe Illustrator 22.0.0, SVG Export Plug-In . SVG Version: 6.00 Build 0)  -->
<svg version="1.1" id="Layer_1" xmlns="http://www.w3.org/2000/svg" xmlns:xlink="http://www.w3.org/1999/xlink" x="0px" y="0px"
	 viewBox="0 0 512 512" style="enable-background:new 0 0 512 512;" xml:space="preserve">
<style type="text/css">
	.st0{fill:#FFFFFF;}
</style>
<g>
	<g>
		<g>
			<path class="st0" d="M444.6,288.1c-4.1-12.6-2.4-26.4,4.5-37.7c2-3.3,2.1-7.4,0.2-10.8c-1.9-3.4-5.4-5.4-9.3-5.4h-16V85l7.3-19.5
				c0.4-1.2,0.7-2.5,0.7-3.7V10.6C432,4.8,427.2,0,421.3,0h-58.5c-5.9,0-10.6,4.8-10.6,10.6v51.1c0,1.3,0.2,2.5,0.7,3.7l7.3,19.5
				v149.2h-16c-3.9,0-7.4,2.1-9.3,5.4c-1.9,3.4-1.8,7.5,0.2,10.8c6.9,11.3,8.6,25,4.5,37.7c-4,12.4-6.1,25-6.1,37.2v155.3
				c0,16.8,13.6,30.4,30.4,30.4h56.2c16.8,0,30.4-13.6,30.4-30.4V325.2C450.6,313,448.6,300.5,444.6,288.1z M373.4,21.3h37.3v38.5
				l-7.3,19.5c-0.4,1.2-0.7,2.5-0.7,3.7v151.2h-21.3V83c0-1.3-0.2-2.5-0.7-3.7l-7.3-19.5L373.4,21.3L373.4,21.3z M429.3,480.5
				L429.3,480.5c0,5-4.1,9.1-9.1,9.1H364c-5,0-9.1-4.1-9.1-9.1V325.2c0-10,1.7-20.3,5-30.6c4.1-12.8,4.3-26.5,0.6-39.1h63.3
				c-3.7,12.7-3.6,26.3,0.6,39.1c3.3,10.3,5,20.6,5,30.6L429.3,480.5L429.3,480.5z"/>
			<path class="st0" d="M392.1,310.5c-5.9,0-10.6,4.8-10.6,10.6v2.1c0,5.9,4.8,10.6,10.6,10.6s10.6-4.8,10.6-10.6v-2.1
				C402.7,315.3,398,310.5,392.1,310.5z"/>
			<path class="st0" d="M392.1,351.7c-5.9,0-10.6,4.8-10.6,10.6v90.8c0,5.9,4.8,10.6,10.6,10.6s10.6-4.8,10.6-10.6v-90.8
				C402.7,356.5,398,351.7,392.1,351.7z"/>
			<path class="st0" d="M228.6,3.5c-3-3-7.6-4-11.6-2.3c-4,1.6-6.6,5.5-6.6,9.8v106.4h-63.9V11c0-4.3-2.6-8.2-6.6-9.8
				c-4-1.6-8.6-0.7-11.6,2.3l-27.8,27.8c-25.3,25.3-39.2,58.8-39.2,94.6v18.9c0,27,13.1,52.4,35.1,68.1
				c16.4,11.7,26.1,30.6,26.1,50.7v222.9c0,14.1,11.5,25.5,25.5,25.5h60.7c14.1,0,25.5-11.5,25.5-25.5V263.6
				c0-20.1,9.8-39.1,26.1-50.7c22-15.7,35.1-41.1,35.1-68.1v-18.9c0-35.7-13.9-69.3-39.2-94.6L228.6,3.5z M274.3,144.8
				c0,20.1-9.8,39.1-26.1,50.7c-22,15.7-35.1,41.1-35.1,68.1v222.9c0,2.3-1.9,4.3-4.3,4.3h-60.7c-2.3,0-4.3-1.9-4.3-4.3V263.6
				c0-27-13.1-52.4-35.1-68.1c-16.4-11.7-26.1-30.6-26.1-50.7v-18.9c0-30,11.7-58.3,32.9-79.5l9.6-9.6v91.4
				c0,5.9,4.8,10.6,10.6,10.6H221c5.9,0,10.6-4.8,10.6-10.6V36.7l9.6,9.6c21.2,21.2,32.9,49.5,32.9,79.5L274.3,144.8L274.3,144.8z"
				/>
			<path class="st0" d="M205.1,177.9h-53.2c-5.9,0-10.6,4.8-10.6,10.6s4.8,10.6,10.6,10.6h53.2c5.9,0,10.6-4.8,10.6-10.6
				S211,177.9,205.1,177.9z"/>
		</g>
	</g>
</g>
</svg>
