<svg xmlns="http://www.w3.org/2000/svg" viewBox="0 0 128.23 142.49"><defs><style>.cls-1{fill:#000;}</style></defs><title>Inversion</title><g id="Capa_2" data-name="Capa 2"><g id="Capa_1-2" data-name="Capa 1"><path class="cls-1" d="M127.2,19.15l-6.09-5.36,6.09-5.36a3,3,0,0,0-2-5.26H100V2.09a2.09,2.09,0,1,0-4.18,0V30.25L78.69,39.57a6.67,6.67,0,0,0-.67-2.2L75.6,32.65a6.6,6.6,0,0,0-8.88-2.86l-1.87.95A6.62,6.62,0,0,0,62,39.63l2.42,4.72a6.53,6.53,0,0,0,2.38,2.58A18.44,18.44,0,0,0,64.26,53l-.45,1.59a2.09,2.09,0,0,0,1.44,2.58,2.24,2.24,0,0,0,.57.08,2.09,2.09,0,0,0,2-1.52l.45-1.59c.91-3.23,1.48-5,3.27-5.93l3.2-1.74.4-.2.38-.22L98.39,33.62a8.83,8.83,0,0,1-4.21,7.1l-14.87,9,0,0-4.63,2.81a2.09,2.09,0,0,0,2,3.67L73.11,66.87l-2.56,1-7,2.86,2-7.11a2.09,2.09,0,0,0-4-1.13L58.38,73.77a1.83,1.83,0,0,0-.07.46L57.48,89.5a7.15,7.15,0,0,1-.17,2.26l-9.24,19.43H41.36a7.13,7.13,0,0,0-7.13,7.13v6a7.1,7.1,0,0,0-2.95-.64h-17a7.14,7.14,0,0,0-7.13,7.13v7.48h-5a2.09,2.09,0,1,0,0,4.18H125.22a2.09,2.09,0,0,0,0-4.18h-5.44V84.48a7.13,7.13,0,0,0-7.12-7.13H100V40.92a13,13,0,0,0,2.1-11.16,2.08,2.08,0,0,0-2.1-1.53V24.42h25.2a3,3,0,0,0,2-5.27ZM65.55,35.88a2.45,2.45,0,0,1,1.2-1.42l1.87-1a2.41,2.41,0,0,1,3.26,1.05l2.42,4.72a2.42,2.42,0,0,1-.81,3.11l-.68.37-1.43.73a2.42,2.42,0,0,1-3.26-1.05L65.7,37.72A2.4,2.4,0,0,1,65.55,35.88Zm-4.2,75.95a7,7,0,0,0-2.29-.61l2.29-3ZM71.27,95a8,8,0,0,0,1.51-3.74l1.08-5.9s1,.61,1.08.65a.23.23,0,0,1,.13.19L76.2,97.74h-7ZM83.62,83.48,81.86,97.73H80.4L79.23,85.79a4.4,4.4,0,0,0-2.46-3.53l-2.1-1.34,1.39-7.75s5.9,7,6,7.18C83.31,81.94,83.73,82.57,83.62,83.48ZM61.06,93.58a11.41,11.41,0,0,0,.59-3.87l.76-13.94,9.65-4-1.75,9.72a.22.22,0,0,0,0,.08l-1.46,8A7.93,7.93,0,0,1,68,92.44L53.86,111.19H52.69ZM11.28,130.83a3,3,0,0,1,3-3H31.28a3,3,0,0,1,2.95,3v7.48H11.28Zm27.12,0V118.32a3,3,0,0,1,3-3h17a3,3,0,0,1,3,3v20H38.41v-7.48Zm77.21-46.35v53.83h-23V125.79a2.09,2.09,0,1,0-4.18,0v12.52h-23V104.87a3,3,0,0,1,3-3h17a3,3,0,0,1,3,3v10.47a2.09,2.09,0,0,0,4.18,0V84.48a3,3,0,0,1,3-3h17A3,3,0,0,1,115.61,84.48Zm-20-7.13a7.14,7.14,0,0,0-7.13,7.13V98.39a6.81,6.81,0,0,0-2.42-.62L87.76,84c.34-2.69-1-4.46-2.35-6.19-.14-.18-8.26-9.82-8.26-9.82l5-15.05,13.71-8.34V77.35ZM100,20.24V7.35h22.09l-4.75,4.19a3,3,0,0,0,0,4.51l4.75,4.19Z"/></g></g></svg>
