<svg xmlns="http://www.w3.org/2000/svg" viewBox="0 0 117.92 142.49"><defs><style>.cls-1{fill:#000;}</style></defs><title>Experiencia Industrial</title><g id="Capa_2" data-name="Capa 2"><g id="Capa_1-2" data-name="Capa 1"><path class="cls-1" d="M117.4,123.78l-14.94-19.21a21.67,21.67,0,0,0,11.82-8.76c3.52-6.09,1.93-13.51.39-20.69A56.17,56.17,0,0,1,113,63.87a56.38,56.38,0,0,1,1.66-11.26c1.53-7.18,3.13-14.6-.39-20.67-3.64-6.3-11-8.63-18.08-10.88a53.4,53.4,0,0,1-10.22-4,50.12,50.12,0,0,1-8.18-6.64C72.53,5.53,66.56,0,59,0S45.39,5.53,40.12,10.42a50.12,50.12,0,0,1-8.18,6.64,52.88,52.88,0,0,1-10.21,4C14.63,23.3,7.29,25.63,3.64,31.93.12,38,1.71,45.44,3.25,52.61A55.66,55.66,0,0,1,4.91,63.87,56.27,56.27,0,0,1,3.25,75.13c-1.53,7.18-3.13,14.6.39,20.68a21.61,21.61,0,0,0,11.84,8.75l-15,19.22a2.46,2.46,0,0,0,2.24,4l17.57-2.2,4.33,15.17a2.46,2.46,0,0,0,1.9,1.74,2.4,2.4,0,0,0,.46.05,2.48,2.48,0,0,0,1.95-1l15.68-20.18A22.76,22.76,0,0,0,59,127.75a22.73,22.73,0,0,0,14.31-6.39L89,141.53a2.48,2.48,0,0,0,1.94,1,2.4,2.4,0,0,0,.46-.05,2.46,2.46,0,0,0,1.9-1.74l4.33-15.17,17.57,2.2a2.46,2.46,0,0,0,2.24-4ZM28.06,134.7l-3.59-12.54a2.44,2.44,0,0,0-2.66-1.76L8.05,122.12l12.33-15.85,1.36.43a52.54,52.54,0,0,1,10.2,4,50.59,50.59,0,0,1,8.18,6.63l.85.78ZM59,122.83c-5.67,0-10.45-4.42-15.5-9.11a54.48,54.48,0,0,0-9.07-7.29A57.55,57.55,0,0,0,23.21,102C16.72,100,10.58,98,7.89,93.35c-2.57-4.44-1.24-10.63.16-17.19A60,60,0,0,0,9.83,63.87,60.63,60.63,0,0,0,8.06,51.59C6.65,45,5.32,38.84,7.89,34.39c2.7-4.65,8.83-6.6,15.32-8.66a56.08,56.08,0,0,0,11.18-4.42A53.51,53.51,0,0,0,43.45,14C48.51,9.34,53.29,4.91,59,4.91S69.41,9.34,74.47,14a53.9,53.9,0,0,0,9.06,7.29,56.31,56.31,0,0,0,11.18,4.42c6.5,2.06,12.63,4,15.32,8.66,2.57,4.45,1.25,10.64-.16,17.2a60,60,0,0,0-1.78,12.28,60,60,0,0,0,1.78,12.29c1.4,6.55,2.73,12.75.16,17.19C107.33,98,101.2,100,94.71,102a57.55,57.55,0,0,0-11.18,4.42,54.41,54.41,0,0,0-9.06,7.29C69.41,118.41,64.64,122.83,59,122.83Zm37.17-2.43a2.46,2.46,0,0,0-2.67,1.76L89.87,134.7,77,118.11l.84-.79A50.59,50.59,0,0,1,86,110.69a52.88,52.88,0,0,1,10.21-4l1.36-.44,12.34,15.86Z"/><path class="cls-1" d="M59,19.65a44.22,44.22,0,1,0,44.22,44.22A44.22,44.22,0,0,0,59,19.65Zm0,83.53A39.31,39.31,0,1,1,98.27,63.87,39.31,39.31,0,0,1,59,103.18Z"/><path class="cls-1" d="M87.31,53.61a4.92,4.92,0,0,0-4-2h-15L63.63,37.27a4.92,4.92,0,0,0-9.34,0L49.64,51.59h-15a4.92,4.92,0,0,0-2.9,8.89l12.18,8.84L39.22,83.63a4.91,4.91,0,0,0,7.56,5.5L59,80.29l12.18,8.84a4.91,4.91,0,0,0,7.56-5.49L74.05,69.32l12.18-8.84A4.93,4.93,0,0,0,87.31,53.61ZM69.72,66.4a2.43,2.43,0,0,0-.9,2.74l5.21,16-13.62-9.9a2.48,2.48,0,0,0-2.89,0L43.9,85.16l5.2-16a2.44,2.44,0,0,0-.89-2.74L34.59,56.5H51.42a2.45,2.45,0,0,0,2.34-1.69l5.2-16,5.2,16a2.46,2.46,0,0,0,2.34,1.7H83.34Z"/></g></g></svg>
