<svg xmlns="http://www.w3.org/2000/svg" viewBox="0 0 148.44 142.49"><defs><style>.cls-1{fill:#000;}</style></defs><title>Fundada</title><g id="Capa_2" data-name="Capa 2"><g id="Capa_1-2" data-name="Capa 1"><path class="cls-1" d="M148.15,78.1a58.49,58.49,0,0,0-45.5-51.31V19.42A9.86,9.86,0,0,0,100.27,0H79.39A9.86,9.86,0,0,0,77,19.42v7.39A58.44,58.44,0,0,0,43.54,48.1H22.66a2.9,2.9,0,0,0,0,5.8H39.6A58.14,58.14,0,0,0,34.45,65H2.9a2.9,2.9,0,1,0,0,5.8H32.81A59.1,59.1,0,0,0,31.38,82H18.55a2.9,2.9,0,0,0,0,5.8H31.47a58.56,58.56,0,0,0,1.81,11.14H14.5a2.9,2.9,0,0,0,0,5.8H35.13a58.5,58.5,0,0,0,49,37.49c1.91.19,3.83.29,5.74.29a58.74,58.74,0,0,0,32-9.45,2.9,2.9,0,1,0-3.16-4.86,52.77,52.77,0,1,1,15.54-15.56,2.9,2.9,0,1,0,4.86,3.16A58.8,58.8,0,0,0,148.15,78.1ZM75.33,9.86A4.07,4.07,0,0,1,79.39,5.8h20.88a4.06,4.06,0,1,1,0,8.12H79.39A4.07,4.07,0,0,1,75.33,9.86Zm7.48,16v-6.1h14V25.8A59.4,59.4,0,0,0,82.81,25.81Z"/><path class="cls-1" d="M129.24,120.38a2.9,2.9,0,0,0-2.9,2.9,2.91,2.91,0,0,0,.85,2,2.87,2.87,0,0,0,2.05.85,2.9,2.9,0,0,0,2-5A3,3,0,0,0,129.24,120.38Z"/><path class="cls-1" d="M89.87,39a45,45,0,1,0,45,45A45,45,0,0,0,89.87,39Zm0,84.15a39.18,39.18,0,1,1,39.18-39.18A39.21,39.21,0,0,1,89.87,123.1Z"/><path class="cls-1" d="M108.21,61.49,93.85,75.84a9,9,0,0,0-7.95,0l-6.43-6.42a2.9,2.9,0,0,0-4.1,4.1l6.43,6.42a9,9,0,0,0,8.07,13,9,9,0,0,0,9-9,8.93,8.93,0,0,0-.93-4L111.89,66h0l.42-.42a2.9,2.9,0,0,0-4.1-4.1ZM89.87,87.13a3.21,3.21,0,1,1,3.22-3.21A3.21,3.21,0,0,1,89.87,87.13Z"/><path class="cls-1" d="M120.87,81.06h-2.68a2.9,2.9,0,1,0,0,5.8h2.68a2.9,2.9,0,1,0,0-5.8Z"/><path class="cls-1" d="M61.56,81H58.88a2.9,2.9,0,0,0,0,5.8h2.68a2.9,2.9,0,0,0,0-5.8Z"/><path class="cls-1" d="M89.91,58.51a2.9,2.9,0,0,0,2.9-2.9V52.93a2.9,2.9,0,0,0-5.8,0v2.68A2.9,2.9,0,0,0,89.91,58.51Z"/><path class="cls-1" d="M89.84,109.34a2.9,2.9,0,0,0-2.9,2.9v2.68a2.9,2.9,0,1,0,5.8,0v-2.68A2.9,2.9,0,0,0,89.84,109.34Z"/><path class="cls-1" d="M2.9,98.91a2.9,2.9,0,1,0,2.9,2.9,2.9,2.9,0,0,0-2.9-2.9Z"/></g></g></svg>
