<?xml version="1.0" encoding="utf-8"?>
<!-- Generator: Adobe Illustrator 15.0.0, SVG Export Plug-In . SVG Version: 6.00 Build 0)  -->
<!DOCTYPE svg PUBLIC "-//W3C//DTD SVG 1.1//EN" "http://www.w3.org/Graphics/SVG/1.1/DTD/svg11.dtd">
<svg version="1.1" id="Ebene_1" xmlns="http://www.w3.org/2000/svg" xmlns:xlink="http://www.w3.org/1999/xlink" x="0px" y="0px"
	 width="389.149px" height="175.851px" viewBox="0 0 389.149 175.851" enable-background="new 0 0 389.149 175.851"
	 xml:space="preserve">
<g>
	<defs>
		<rect id="SVGID_1_" x="5.624" y="8.002" width="377.9" height="159.845"/>
	</defs>
	<clipPath id="SVGID_2_">
		<use xlink:href="#SVGID_1_"  overflow="visible"/>
	</clipPath>
	<polyline clip-path="url(#SVGID_2_)" fill="none" stroke="#000000" stroke-width="5.5728" stroke-miterlimit="10" points="
		5.624,135.527 5.624,135.527 383.812,135.527 	"/>
	<path clip-path="url(#SVGID_2_)" fill-rule="evenodd" clip-rule="evenodd" fill="#CB0079" d="M5.624,7.587L5.624,7.587h78.387
		c10.813-0.12,28.942,3.851,35.901,19.371c2.637,5.951,2.461,17.669,2.461,19.418c0,16.791-9.364,25.873-29.834,31.464
		l30.426,47.038H98.651l-30.488-47.39H23.991v47.448H5.624V7.587z M23.754,23.651L23.754,23.651V61.01h57.857
		c8.946,0.12,19.197-6.622,19.197-18.364c0-8.843-6.959-19.115-17.75-18.995H23.754z"/>
	<polygon clip-path="url(#SVGID_2_)" fill="#CB0079" points="188.442,7.707 188.442,7.707 212.101,7.707 247.808,98.168 
		276.507,7.587 296.481,7.587 327.995,98.168 362.981,7.707 383.812,7.707 337.534,124.998 315.522,124.998 286.167,37.174 
		258.194,124.998 236.813,124.998 	"/>
	<polygon clip-path="url(#SVGID_2_)" fill="#CB0079" points="158.607,40.96 158.607,40.96 164.681,40.96 164.681,71.778 
		197.999,71.778 197.999,78.145 165.032,78.145 165.032,110.025 158.752,110.025 158.752,77.785 128.238,77.785 128.238,72.129 
		158.607,72.129 	"/>
	<path clip-path="url(#SVGID_2_)" fill="#757575" d="M5.624,167.531L5.624,167.531l6.427-20.463h2.4l6.843,20.463h-2.519
		l-1.984-6.207H9.77l-1.864,6.207H5.624z M10.425,159.104L10.425,159.104h5.712l-1.746-5.65c-0.535-1.746-0.972-3.193-1.209-4.264
		c-0.238,1.309-0.536,2.637-0.893,3.906L10.425,159.104z"/>
	<path clip-path="url(#SVGID_2_)" fill="#757575" d="M33.413,167.531L33.413,167.531v-20.463h6.307c1.488,0,2.639,0.139,3.293,0.377
		c0.973,0.355,1.746,1.01,2.34,1.982c0.536,0.951,0.854,2.102,0.854,3.549c0,1.805-0.496,3.313-1.389,4.443
		c-0.951,1.209-2.578,1.744-4.859,1.744h-4.324v8.367H33.413z M35.634,156.764L35.634,156.764h4.324c1.389,0,2.4-0.297,2.995-0.912
		c0.675-0.594,0.972-1.566,0.972-2.816c0-0.793-0.119-1.506-0.496-2.041c-0.297-0.615-0.654-0.973-1.07-1.211
		c-0.477-0.178-1.27-0.297-2.4-0.297h-4.324V156.764z"/>
	<path clip-path="url(#SVGID_2_)" fill="#757575" d="M48.428,157.537L48.428,157.537c0-3.49,0.773-6.188,2.28-8.051
		c1.547-1.863,3.472-2.775,5.752-2.775c1.508,0,2.817,0.416,4.027,1.209c1.249,0.832,2.222,2.102,2.876,3.668
		c0.714,1.627,1.09,3.49,1.09,5.713c0,3.014-0.674,5.473-2.042,7.395c-1.508,2.104-3.491,3.193-5.951,3.193
		c-2.459,0-4.502-1.09-6.01-3.252C49.142,162.654,48.428,160.314,48.428,157.537z M50.708,157.598L50.708,157.598
		c0,2.537,0.536,4.461,1.666,5.85c1.092,1.367,2.461,2.102,4.027,2.102c1.686,0,2.994-0.734,4.146-2.102
		c1.071-1.389,1.626-3.49,1.626-6.207c0-1.744-0.317-3.371-0.853-4.76c-0.417-1.012-1.071-1.863-1.983-2.518
		c-0.893-0.654-1.785-0.951-2.877-0.951c-1.686,0-3.054,0.713-4.145,2.102C51.244,152.48,50.708,154.662,50.708,157.598z"/>
	<path clip-path="url(#SVGID_2_)" fill="#757575" d="M67.271,167.531L67.271,167.531v-20.463h6.308c1.487,0,2.578,0.139,3.293,0.377
		c0.951,0.355,1.745,1.01,2.28,1.982c0.595,0.951,0.893,2.102,0.893,3.549c0,1.805-0.476,3.313-1.428,4.443
		c-0.913,1.209-2.52,1.744-4.86,1.744h-4.264v8.367H67.271z M69.492,156.764L69.492,156.764h4.324c1.367,0,2.34-0.297,2.994-0.912
		c0.654-0.594,0.953-1.566,0.953-2.816c0-0.793-0.18-1.506-0.477-2.041c-0.297-0.615-0.654-0.973-1.131-1.211
		c-0.437-0.178-1.21-0.297-2.4-0.297h-4.264V156.764z"/>
	<path clip-path="url(#SVGID_2_)" fill="#757575" d="M82.88,167.531L82.88,167.531v-20.463h6.287c1.511,0,2.581,0.139,3.316,0.377
		c0.95,0.355,1.726,1.01,2.341,1.982c0.535,0.951,0.831,2.102,0.831,3.549c0,1.805-0.479,3.313-1.366,4.443
		c-0.975,1.209-2.604,1.744-4.882,1.744h-4.306v8.367H82.88z M85.102,156.764L85.102,156.764h4.306c1.39,0,2.396-0.297,3.012-0.912
		c0.655-0.594,0.951-1.566,0.951-2.816c0-0.793-0.176-1.506-0.472-2.041c-0.296-0.615-0.655-0.973-1.15-1.211
		c-0.415-0.178-1.19-0.297-2.341-0.297h-4.306V156.764z"/>
	<polygon clip-path="url(#SVGID_2_)" fill="#757575" points="98.531,167.531 98.531,167.531 98.531,147.068 110.668,147.068 
		110.668,149.486 100.753,149.486 100.753,155.734 109.997,155.734 109.997,158.152 100.753,158.152 100.753,165.133 
		111.027,165.133 111.027,167.531 	"/>
	<polygon clip-path="url(#SVGID_2_)" fill="#757575" points="122.725,164.221 122.725,164.221 122.725,158.568 118.163,158.568 
		118.163,156.289 122.725,156.289 122.725,150.676 124.65,150.676 124.65,156.289 129.213,156.289 129.213,158.568 124.65,158.568 
		124.65,164.221 	"/>
	<path clip-path="url(#SVGID_2_)" fill="#757575" d="M136.892,167.531L136.892,167.531v-20.463h6.367
		c1.423,0,2.573,0.139,3.229,0.377c1.03,0.355,1.75,1.01,2.341,1.982c0.6,0.951,0.854,2.102,0.854,3.549
		c0,1.805-0.439,3.313-1.39,4.443c-0.951,1.209-2.573,1.744-4.858,1.744h-4.322v8.367H136.892z M139.112,156.764L139.112,156.764
		h4.379c1.31,0,2.341-0.297,2.996-0.912c0.599-0.594,0.919-1.566,0.919-2.816c0-0.793-0.12-1.506-0.439-2.041
		c-0.359-0.615-0.711-0.973-1.135-1.211c-0.472-0.178-1.263-0.297-2.397-0.297h-4.322V156.764z"/>
	<path clip-path="url(#SVGID_2_)" fill="#757575" d="M152.56,157.537L152.56,157.537c0-3.49,0.775-6.188,2.277-8.051
		c1.55-1.863,3.476-2.775,5.753-2.775c1.454,0,2.836,0.416,4.026,1.209c1.215,0.832,2.222,2.102,2.877,3.668
		c0.734,1.627,1.094,3.49,1.094,5.713c0,3.014-0.679,5.473-2.045,7.395c-1.51,2.104-3.548,3.193-5.952,3.193
		c-2.518,0-4.499-1.09-5.985-3.252C153.215,162.654,152.56,160.314,152.56,157.537z M154.837,157.598L154.837,157.598
		c0,2.537,0.535,4.461,1.686,5.85c1.079,1.367,2.461,2.102,4.011,2.102c1.622,0,3.013-0.734,4.147-2.102
		c1.086-1.389,1.621-3.49,1.621-6.207c0-1.744-0.295-3.371-0.847-4.76c-0.423-1.012-1.07-1.863-1.966-2.518
		c-0.91-0.654-1.869-0.951-2.899-0.951c-1.662,0-3.053,0.713-4.123,2.102C155.372,152.48,154.837,154.662,154.837,157.598z"/>
	<polygon clip-path="url(#SVGID_2_)" fill="#757575" points="175.075,167.531 175.075,167.531 175.075,149.486 169.538,149.486 
		169.538,147.068 182.81,147.068 182.81,149.486 177.296,149.486 177.296,167.531 	"/>
	<polygon clip-path="url(#SVGID_2_)" fill="#757575" points="189.354,167.531 189.354,167.531 189.354,149.486 183.816,149.486 
		183.816,147.068 197.087,147.068 197.087,149.486 191.574,149.486 191.574,167.531 	"/>
	<polygon clip-path="url(#SVGID_2_)" fill="#757575" points="199.372,167.531 199.372,167.531 199.372,147.068 201.593,147.068 
		201.593,155.436 210.294,155.436 210.294,147.068 212.517,147.068 212.517,167.531 210.294,167.531 210.294,157.836 
		201.593,157.836 201.593,167.531 	"/>
	<path clip-path="url(#SVGID_2_)" fill="#757575" d="M215.632,157.537L215.632,157.537c0-3.49,0.791-6.188,2.285-8.051
		c1.566-1.863,3.492-2.775,5.77-2.775c1.43,0,2.82,0.416,4.002,1.209c1.215,0.832,2.166,2.102,2.9,3.668
		c0.711,1.627,1.07,3.49,1.07,5.713c0,3.014-0.654,5.473-2.045,7.395c-1.541,2.104-3.531,3.193-5.984,3.193
		c-2.461,0-4.441-1.09-5.953-3.252C216.312,162.654,215.632,160.314,215.632,157.537z M217.917,157.598L217.917,157.598
		c0,2.537,0.535,4.461,1.686,5.85c1.07,1.367,2.453,2.102,4.027,2.102c1.605,0,2.988-0.734,4.059-2.102
		c1.15-1.389,1.693-3.49,1.693-6.207c0-1.744-0.303-3.371-0.838-4.76c-0.471-1.012-1.15-1.863-1.982-2.518
		c-0.895-0.654-1.861-0.951-2.875-0.951c-1.686,0-3.076,0.713-4.146,2.102C218.452,152.48,217.917,154.662,217.917,157.598z"/>
	<polygon clip-path="url(#SVGID_2_)" fill="#757575" points="234.593,167.531 234.593,167.531 234.593,147.068 245.938,147.068 
		245.938,149.486 236.813,149.486 236.813,155.793 244.69,155.793 244.69,158.213 236.813,158.213 236.813,167.531 	"/>
	<polygon clip-path="url(#SVGID_2_)" fill="#757575" points="248.958,167.531 248.958,167.531 248.958,147.068 260.239,147.068 
		260.239,149.486 251.179,149.486 251.179,155.793 259.034,155.793 259.034,158.213 251.179,158.213 251.179,167.531 	"/>
	<path clip-path="url(#SVGID_2_)" fill="#757575" d="M280.829,160.314L280.829,160.314l2.223,0.713
		c-0.496,2.301-1.326,4.025-2.598,5.117c-1.189,1.148-2.701,1.744-4.506,1.744c-1.486,0-2.877-0.416-3.947-1.15
		c-1.086-0.773-1.982-1.982-2.693-3.668c-0.734-1.686-1.094-3.668-1.094-5.949c0-2.221,0.359-4.145,1.094-5.711
		c0.711-1.566,1.662-2.717,2.877-3.549c1.191-0.793,2.518-1.15,4.027-1.15c1.541,0,2.988,0.496,4.123,1.506
		c1.15,0.973,1.98,2.459,2.461,4.402l-2.223,0.654c-0.719-2.836-2.221-4.262-4.426-4.262c-1.15,0-2.102,0.297-2.955,0.832
		c-0.775,0.594-1.432,1.506-1.926,2.717c-0.473,1.189-0.711,2.697-0.711,4.561c0,2.836,0.479,4.938,1.445,6.326
		c1.016,1.367,2.285,2.102,3.947,2.102c1.215,0,2.221-0.416,3.141-1.27C279.919,163.387,280.511,162.119,280.829,160.314z"/>
	<path clip-path="url(#SVGID_2_)" fill="#757575" d="M285.192,157.537L285.192,157.537c0-3.49,0.791-6.188,2.285-8.051
		c1.566-1.863,3.492-2.775,5.77-2.775c1.445,0,2.813,0.416,4.025,1.209c1.248,0.832,2.223,2.102,2.877,3.668
		c0.711,1.627,1.07,3.49,1.07,5.713c0,3.014-0.654,5.473-2.021,7.395c-1.51,2.104-3.49,3.193-5.951,3.193
		c-2.518,0-4.508-1.09-6.01-3.252C285.927,162.654,285.192,160.314,285.192,157.537z M287.478,157.598L287.478,157.598
		c0,2.537,0.551,4.461,1.686,5.85c1.15,1.367,2.453,2.102,4.027,2.102c1.686,0,2.988-0.734,4.139-2.102
		c1.07-1.389,1.605-3.49,1.605-6.207c0-1.744-0.295-3.371-0.83-4.76c-0.416-1.012-1.07-1.863-1.982-2.518
		c-0.895-0.654-1.861-0.951-2.875-0.951c-1.688,0-3.053,0.713-4.148,2.102C288.028,152.48,287.478,154.662,287.478,157.598z"/>
	<path clip-path="url(#SVGID_2_)" fill="#757575" d="M303.993,167.531L303.993,167.531v-20.463h3.299l4.02,14.455l0.775,3.055
		c0.184-0.773,0.479-1.865,0.918-3.313l4.004-14.197h3.012v20.463h-2.158v-17.152l-4.857,17.152h-2.045l-4.857-17.449v17.449
		H303.993z"/>
	<path clip-path="url(#SVGID_2_)" fill="#757575" d="M323.552,167.531L323.552,167.531v-20.463h6.313
		c1.486,0,2.572,0.139,3.291,0.377c0.967,0.355,1.742,1.01,2.277,1.982c0.615,0.951,0.912,2.102,0.912,3.549
		c0,1.805-0.496,3.313-1.447,4.443c-0.895,1.209-2.516,1.744-4.857,1.744h-4.268v8.367H323.552z M325.772,156.764L325.772,156.764
		h4.324c1.389,0,2.34-0.297,2.996-0.912c0.615-0.594,0.975-1.566,0.975-2.816c0-0.793-0.176-1.506-0.496-2.041
		c-0.295-0.615-0.719-0.973-1.135-1.211c-0.416-0.178-1.27-0.297-2.396-0.297h-4.268V156.764z"/>
	<path clip-path="url(#SVGID_2_)" fill="#757575" d="M335.608,167.531L335.608,167.531l6.488-20.463h2.342l6.846,20.463h-2.523
		l-1.918-6.207h-7.088l-1.805,6.207H335.608z M340.411,159.104L340.411,159.104h5.713l-1.742-5.65
		c-0.535-1.746-0.895-3.193-1.191-4.264c-0.184,1.309-0.494,2.637-0.91,3.906L340.411,159.104z"/>
	<polygon clip-path="url(#SVGID_2_)" fill="#757575" points="353.026,167.531 353.026,167.531 353.026,147.068 355.249,147.068 
		364.077,163.129 364.077,147.068 366.179,147.068 366.179,167.531 363.958,167.531 355.128,151.41 355.128,167.531 	"/>
	<path clip-path="url(#SVGID_2_)" fill="#757575" d="M374.688,167.531L374.688,167.531v-8.664l-6.488-11.799h2.717l3.291,6.146
		c0.656,1.27,1.215,2.4,1.75,3.49c0.471-1.09,1.07-2.281,1.807-3.609l3.227-6.027h2.582l-6.664,11.799v8.664H374.688z"/>
	<path clip-path="url(#SVGID_2_)" fill-rule="evenodd" clip-rule="evenodd" fill="#CB0079" d="M367.903,115.262L367.903,115.262
		h1.982c1.094,0,1.686,0.416,1.686,1.309c0,0.852-0.654,1.268-1.502,1.268h-2.166V115.262z M366.058,123.49L366.058,123.49h1.846
		v-4.025h2.166l1.502,4.025h2.045l-1.861-4.322c0.648-0.299,1.742-0.654,1.742-2.459c0-2.895-2.166-3.193-4.082-3.193h-3.357V123.49
		z M361.616,118.752L361.616,118.752c0-4.463,3.588-8.072,8.029-8.072c4.443,0,8.055,3.609,8.055,8.072
		c0,4.381-3.611,8.051-8.055,8.051C365.204,126.803,361.616,123.133,361.616,118.752z M369.646,128.189L369.646,128.189
		c5.219,0,9.484-4.203,9.484-9.438c0-5.176-4.266-9.459-9.484-9.459c-5.152,0-9.42,4.283-9.42,9.459
		C360.226,123.986,364.493,128.189,369.646,128.189z"/>
</g>
</svg>
